<svg version="1.0" xmlns="http://www.w3.org/2000/svg" viewBox="-20 -20 640 640">
    <path stroke="currentColor" stroke-width="6" stroke-linejoin="round" d="M269 62.1c-37.5 3.2-71.2 26.8-89 62.4-3.6 7.3-7.1 15.9-8.7 22-2.3 8.8-2.6 11.8-2.6 25.5 0 13.5.3 16.8 2.6 25.2 9.5 35.9 36.9 66.8 70.1 79.3 3.7 1.4 9.1 3 11.8 3.6s4.7 1.6 4.6 2.1c-.2.6-6 2.6-12.8 4.5-47.3 12.8-81.2 49.2-90.7 97.1-2.3 11.6-2.3 33.6 0 45.4 5.2 26.2 17.1 48.2 36.1 66.6 17.5 16.9 36.9 27.3 60.6 32.3 8.7 1.9 13.8 2.3 30 2.3 20.5.1 26.6-.6 41.5-5.1 29.8-8.8 58.1-33.7 73.8-65 5.6-11 9.5-23.7 12.1-39 3-17.7 6.9-26.4 16-35.7 8.8-8.9 15.9-12.8 32.1-17.7 22.5-6.7 29.3-10.8 33.9-20.1 4.2-8.4 3.1-17-2.8-22.7-10.9-10.5-29.3 1-21.6 13.6 2.8 4.7 7.2 6.7 11.5 5.3 4-1.3 5.3-2.7 7.1-7.7l1.3-3.8.1 3.8c0 4.8-2.3 8.3-7.4 11-3.6 1.9-5.5 2.2-16.1 2-20.9-.3-31.5-3.8-72-23.8-14.8-7.3-31.5-15-37-17-32.6-12.1-61-8.9-80.4 9.1-12.2 11.4-18.2 24.9-18.2 41.4-.1 15.8 4.3 26.3 15 36.3 9.1 8.4 15.4 11.1 27.2 11.5 9.5.4 9.9.3 17.1-3.1 9-4.3 14.7-10.2 19-19.3 2.6-5.5 3-7.5 2.9-14.6 0-4.9-.6-10.1-1.6-12.8-7.4-21-32-31.6-52.4-22.5-6.3 2.9-16.2 12.1-17.6 16.5-.4 1.1-1.5 2-2.7 2-1.9 0-2-.4-1.6-5.8 2.1-22.7 27.4-42.2 54.8-42.2 30.8 0 60.8 21.6 77 55.5 8.8 18.4 12 31.7 12 49.3 0 13.1-1.3 20.6-6.1 34.3-6.9 20.1-13.1 30.8-25.3 43.1-16.9 17.2-28.7 25.1-44.5 29.8-21.8 6.6-52-4.5-76.7-28.2-14.2-13.6-23.6-27.7-29.8-44.7-16.6-45-5.8-94.2 27.9-127.6 9.8-9.7 22.6-18.8 33.9-24 7.2-3.3 23.5-8.5 26.8-8.5 4.2 0 1.2-1.7-7.4-4.4-19.3-5.8-35.1-15.1-48-28.3-11.9-12-18.5-21.9-25.1-37.1-16.8-39.1-8.2-91.3 20-121.8 10.2-11 25.7-20.3 37.8-22.5 14.7-2.7 34 3.5 54.5 17.5 8.6 5.8 23.5 19.8 28.5 26.7 4.7 6.3 9.7 16.6 9.3 19.1-.7 4.6-3.1 4.5-13.7-.6-12-5.8-19-6.8-28.9-4.2-16.1 4.1-27.3 15.9-30.7 32.5-1.3 6.1-1.3 7.9 0 14.6 6.6 34.9 49.4 46.6 71.9 19.6 7.5-9 10.8-19.3 10.9-34.1 0-13.3-2.6-23.8-9.3-37.5-19.9-40.5-64.7-65.3-111-61.4m-9 10.1c0 .7-2.3 2.8-5 4.7-2.7 1.8-7.9 6.4-11.4 10.1-28.1 29.8-38.7 77.3-26.5 118.3 6.7 22.5 22.7 46 40.3 59.2 3.7 2.7 6.6 5.7 6.6 6.7 0 3.2-2.9 3.7-10.2 1.7-18.3-5.1-33.2-14-47.3-28.3-14.4-14.5-22.9-29.2-28.2-48.3-2.3-8.4-2.7-11.8-2.8-23.8 0-15.5 1.4-23.1 6.6-36.2 11.7-29.5 37.4-53.9 66.9-63.3 6.6-2.2 11-2.5 11-.8m2.8 220.5c.2 1.6-1.4 3.4-7.2 7.7-44.2 33.3-61.5 90.3-43.7 143.5 10.9 32.5 36 60.1 67.4 74.4 3.3 1.5 5.6 3.1 5.2 3.7-.8 1.3-12 1.3-22.6-.1-22.3-2.9-38.8-9.5-56.6-22.7-29.3-21.9-46.3-55.7-46.4-92.5 0-20.6 2.8-33.2 11.7-51.2 14.8-30.2 39.8-51.3 73.2-61.6 5.4-1.7 10.2-3.2 10.7-3.4.6-.2 2.6-.3 4.5-.2 2.7.2 3.6.7 3.8 2.4m133.4 44.2c22.5 11.4 40.5 17.6 55.3 19 3.9.3 7 1 7 1.5 0 .4-3.8 1.9-8.4 3.3-12.5 3.6-21.5 8.6-29.7 16.8-3.9 3.8-7.8 8.1-8.7 9.4-1.7 2.5-3.7 2.1-3.7-.8 0-3.9-5.3-20-9.5-28.8-3.7-7.9-9.3-17.1-15.1-25.1-.9-1.2-1.4-2.2-1.1-2.2.2 0 6.5 3.1 13.9 6.9"/>
</svg>
