<svg version="1.0" xmlns="http://www.w3.org/2000/svg" viewBox="0 0 366 366">
    <path fill="currentColor" stroke="currentColor" stroke-width="5" stroke-linejoin="round" d="M149 18c-4.1 1.1-11.8 4.1-17 6.7-8 4-11 6.3-19.1 14.3-10 9.9-14.7 16.8-19.3 28.4-9.5 23.6-6.4 49.1 8.7 71.6 9.6 14.4 27.7 27.8 44.1 32.5 3.2.9 5.4 2 4.9 2.5-.4.4-4.8 1.9-9.8 3.5-22.5 6.8-38.6 18.8-50.7 37.5-14.1 21.8-17.7 49.7-9.6 75 7.1 22.4 24 41.7 45.3 52 15.3 7.4 20.8 8.5 42 8.5 21 0 29.4-1.7 42.9-8.8 25.8-13.4 43.4-38.1 48.1-67.2 2.5-15.2 5.5-21.6 13.8-29.2 5.8-5.3 9.8-7.3 22.7-11.3 12.7-3.8 18.1-6.9 21.5-11.8 3.1-4.6 3.4-11.3.5-15.9-5-8.3-19-5.2-19 4.2 0 .7 1.2 2.7 2.6 4.4 3.9 4.7 9.3 4 12.2-1.4 1.1-2 1.1-2 1.2.2 0 2.8-5.1 7-9.7 7.9-6.3 1.2-18.4-.3-28.4-3.5-5.3-1.7-18.6-7.6-29.5-13.1-29.3-14.8-45.6-19.4-60.5-17.1-11.8 1.9-20 6.1-27.2 14-16.7 18.5-12.6 47.5 8.3 58.3 3.1 1.6 6.7 2.4 11.8 2.6 6.3.4 8 .1 12.7-2.3 10.5-5.1 16.2-15.2 15.3-26.9-.3-3.4-1.5-8-2.6-10.3-4.4-8.6-15.2-14.7-25.7-14.6-9.8.1-20.4 7.1-24.1 15.9-2.4 5.7-3.7 4.2-3.2-3.5.9-11.6 7.7-20.3 20.7-26.4 5.5-2.6 8.1-3.2 16-3.5 11.4-.5 18.4.9 27.2 5.5 17.7 9.2 31.2 27.1 37 48.8 3 11.3 3.1 28.8.1 40.7-7.3 29.6-30.9 53.4-55.7 56.2-17.6 2.1-43-10.7-57.8-29.1-27.2-33.6-25.8-81 3.2-112.5 10.9-11.8 25.5-20.7 40.2-24.5 3.8-.9 6.9-2 6.9-2.3s-4-1.7-8.8-3.2c-36.6-11.4-60.4-49.3-55.2-87.8 2.8-21 13-40.6 26.4-50.9 18.5-14.3 37.2-14.6 57.9-.8 9.5 6.4 20.5 16.8 24.2 23 3.7 6.4 5.5 12 4.3 14-1.1 2.1-4.1 2.2-5.8.2-.6-.8-3.7-2.4-6.8-3.6-11-4.1-23.7-1.4-31.6 6.7-5.8 6-8.1 11.7-8.1 20.4.1 16 11 28.3 26.5 29.7 9.2.9 16-1.7 23-8.5 4.9-4.8 6.1-6.8 7.9-12.6C253 71 231 34.5 196.1 21.3c-14.9-5.6-33-6.9-47.1-3.3"/>
</svg>
