<svg xmlns="http://www.w3.org/2000/svg" viewBox="0 0 600 600">
    <path d="M146 51c-29.9.6-30.7.7-38.5 3.4C85 62.1 68.1 77 58.5 97.5c-8.2 17.3-8 15.5-8 89.5 0 51.5.3 66.8 1.4 71.5 7 31.1 28.7 54 59.6 62.7l8 2.3 172.9.3c188.9.3 181.7.5 197.6-5.4 8.3-3.1 19.1-9.9 26.8-16.9 10.7-9.6 20.3-26.6 23.9-42 1.6-7.3 1.8-13.3 1.8-71.5 0-48.2-.3-65.2-1.3-70.4-6.1-32.2-31.3-57.9-64-65.3-7.1-1.6-19-1.7-154.2-1.8-80.6 0-160.2.2-177 .5m324.4 55.6c6.4 2.2 13.8 9.5 15.9 15.8 1.3 3.8 1.7 8.6 1.7 21.2v16.3l-58.2.3c-57.9.3-58.3.3-62.4 2.5-10.9 5.8-14.8 12.5-16.3 28-1.2 11.7-3.6 18.9-9.2 27.2-10.5 15.7-26.4 24.1-45.7 24.1-15.8 0-29.1-5.7-39.8-17.1-9.5-10.2-12.9-17.9-14.9-34.4-.7-6.1-1.7-12.1-2.3-13.5-2.3-5.7-7.1-10.8-12.9-13.6l-5.8-2.9-58-.5-58-.5V143c.1-15.1.3-16.9 2.4-21.8 2.8-6.2 9.4-12.4 15.4-14.6 3.6-1.2 26.8-1.5 173.8-1.5 153.3-.1 170 .1 174.3 1.5M190.7 216c.3 1 2.4 6.7 4.8 12.4 4.8 11.9 12.5 23.9 21.4 33.8 3.4 3.6 6.1 6.9 6.1 7.2s-20.6.6-45.7.6c-50.1 0-54.2-.4-61-5.6-9.9-7.5-11.6-11.8-12.1-31.6-.2-8.7-.2-16.4.1-17.3.6-1.3 5.9-1.5 43.3-1.5 41.5 0 42.6.1 43.1 2M488 231.2c0 16.1-.2 17.6-2.4 22.3-2.9 6.2-7.6 10.7-14.1 13.7-5 2.3-5.3 2.3-53.7 2.6-26.9.2-48.8 0-48.8-.4s2.5-3.2 5.6-6.3c10.3-10.3 19.1-24.3 24.5-39.2 1.7-4.5 3.2-8.6 3.5-9.1.3-.4 19.6-.8 43-.8H488zM69.8 380.4c-5.3 1.4-10.6 5.2-14.1 9.9-5.1 6.9-5.2 7.6-5.1 46.7 0 34.5.2 36.9 2.2 44.5 8.1 29.2 29.7 50.8 59.2 59.2 6.2 1.7 14.7 1.8 185 1.8h178.5l8.5-2.9c24.7-8.3 40.4-22.1 51-44.9 6.9-14.9 7.5-19.5 7.5-59.2v-35l-2.8-5.7c-3.7-7.6-9.2-12.2-17-14.3-5.5-1.4-13.9-1.6-78.7-1.3l-72.5.3-4.7 2.4c-9.3 4.5-14.4 13-15.3 25.2-1.4 17.2-5.5 26.9-16 37.5-11 11.2-23.3 16.4-39 16.4-14.5 0-26.3-4.5-36.7-13.9-11.5-10.4-17-22-18.3-38.2-.8-10.8-4.8-19.7-10.8-24-8.2-6-7.3-5.9-85.1-5.8-53.9 0-72.2.3-75.8 1.3m124.1 63.1c5.6 15.3 13.3 27.6 25 39.8l5.5 5.8-49.4-.3c-48-.3-49.6-.4-54-2.4-5.8-2.7-11.7-8.7-14.3-14.4-1.7-3.8-2.2-7.1-2.5-20.2-.2-8.7-.2-16.4.2-17.3.5-1.3 5.5-1.5 43.2-1.3l42.6.3zm294.1 6.7c0 16-.2 17.7-2.4 22.3-1.2 2.7-4.2 6.7-6.6 8.8-8.2 7.4-5.9 7.2-60.7 7.5-27.1.2-49.3 0-49.3-.3s2.3-2.9 5.1-5.8c11-11.2 19.4-24.5 25-39.8 1.7-4.5 3.2-8.6 3.5-9.1.3-.4 19.6-.8 43-.8H488z"/>
</svg>
