<svg xmlns="http://www.w3.org/2000/svg" viewBox="0 0 553 553">
    <path d="M263.3 29.5c-5.2 3.7-3.4 11.3 3.2 13.5 4.5 1.5 5.5 3.5 5.5 11s-1 9.6-5.8 11.5c-6.3 2.7-7.6 9.2-2.2 12 3.7 1.9 26.2 2.1 30 .2 5.7-2.9 5.1-8.9-1.3-11.9-5-2.4-6.7-5.3-6.7-11.5 0-6.9 1.3-9.8 4.8-11.1 7-2.4 9.4-9.3 4.6-13.1-3.5-2.7-28.4-3.2-32.1-.6m60.1.8c-5.3 4.6-2.6 12.7 4.3 12.7 6.8 0 9.8-7.6 4.8-12.5-3-3.1-5.6-3.2-9.1-.2M190.6 42.1c-2.4 1.9-2.6 2.6-2.6 10.4 0 9.9 1 13 4.4 13.9 6.8 1.7 10.1-3.8 9.4-15.6-.5-10-5.1-13.5-11.2-8.7m25.8-.7q-5.4 2.4-5.4 12.3c0 12.7 9.4 17.8 14.2 7.7 2.6-5.7 2.8-5.8 12.7-6.5 9.3-.6 11.1-1.8 11.1-7.4 0-6.2-2.9-7.5-17.1-7.5-8.2.1-13.5.5-15.5 1.4"/>
    <path d="M299.9 41.9c-4.3 3.5-3.9 22.2.5 24.3 3.8 1.7 8.3-1.3 9.7-6.5 3.3-12.2-3.1-23.5-10.2-17.8M168.4 53c-3.9 1.5-4.9 3.9-4.8 11.4.3 12.6 2.3 14.6 14.2 14.6 8.6 0 11.2-1.6 11.2-6.8 0-4.5-.8-5.7-4-6.7-3-.9-7-4.4-7-6 0-3.9-5.9-7.8-9.6-6.5m179.2 1.1c-4.6 3.6-3.7 21.2 1.3 23.9 2.4 1.3 7.8-.5 8.5-2.8 2.7-9.7 1.3-20.1-3-22.1-3.3-1.5-3.7-1.4-6.8 1m24.3-.8c-6.5 5-2 15 6 13.2 3.6-.8 3.7-.9 4.6-5.7 1.2-6.2-5.8-11.2-10.6-7.5m-120.5.5c-3.9 2.6-4.3 8.4-.7 11.2 4.8 3.7 10.3.8 10.3-5.5 0-5-5.7-8.4-9.6-5.7M320 64.7c-7.3.5-8.7 1.1-9.9 4.1-2.7 6.5 1.4 10.2 11.4 10.2 10.7 0 14.7-3.3 12-9.8-1.7-3.9-5.3-5.1-13.5-4.5m68.3.2c-9.8 1.7-10.4 9.3-1 14 1.8.9 4 3.2 5.1 5.4 3.8 7.8 11.2 8.4 13.7 1 1.5-4.5.7-17-1.2-18.8-1.7-1.6-11-2.5-16.6-1.6m-246.7 2.3c-3.6 5.6-3.1 17.3.8 21.3 3.2 3.2 14.5 4.3 18.7 1.8 6-3.5 5.2-9.6-1.8-13.3-3.3-1.8-5-3.4-5.6-5.5-2.1-6.6-9-9.1-12.1-4.3m84.9.3c-4.4 4.3-1.8 10.8 4.3 10.8 4.3 0 6.2-1.9 6.2-6.4 0-6.8-5.8-9.2-10.5-4.4m-21.2 9.3c-4.9.7-7 8.5-3.3 12.2 1.5 1.5 3.4 2 8.3 2.1 12.4.2 14.7-.9 14.7-7.1 0-5.3-2.1-6.8-10.5-7.2-3.8-.1-8-.2-9.2 0m32.7 2.4c-2.7 2.9-2.5 6.9.4 9.7 3.9 3.7 17.9 3.6 21.2-.2 2.9-3.4 3-5.6.3-9.1-2.9-3.7-18.5-4-21.9-.4m61-.2c-3.9 3.9-.7 13 4.5 13 2.7 0 6.5-4.6 6.5-7.9 0-6-6.9-9.2-11-5.1m36.8-.8c-1.6 1.3-2.3 4-2 8.5.3 3.4 3.7 4.8 8.3 3.4 3.7-1.1 3.9-1.4 3.9-5.5 0-6-5.9-9.7-10.2-6.4m22.8 1c-3.6 5.1-.8 11.8 4.9 11.8 3.6 0 7.5-3.6 7.5-7 0-6-9.2-9.5-12.4-4.8m-176 9.7c-7.2 1.5-8.6 10.9-2 13.7 11 4.6 21.9-.4 20.6-9.4-.5-3.4-10.9-5.8-18.6-4.3m249.7.6c-4.3 3-3.2 13.2 1.5 13.7 6.1.5 9.2-1.9 9.2-7.3 0-6.5-5.7-9.9-10.7-6.4m-303.2 2.1c-1.7 2.1-2.1 4.1-2.1 9.8 0 8.2-1.4 11.1-6 12.1-5 1.1-6.8 7.7-3.1 11.4 2.8 2.8 14.8 3.8 19 1.6 4.6-2.3 5.3-5.3 4.9-19.7-.3-11.8-.5-12.8-2.7-15.2-3.2-3.4-7.3-3.4-10 0m145.4-.1c-4.7 4.6-3.1 21.8 2.2 23.1 6.4 1.7 10.3-2.8 10.3-12 0-11.8-6.3-17.4-12.5-11.1M323 91c-5.5 5.5.5 14.4 7.3 10.9 3-1.6 3.7-2.8 3.7-6.6 0-5.6-6.9-8.4-11-4.3m24.9-1.3c-4.1 1.1-2.9 11.2 1.5 12.8 4.5 1.5 8-1.1 8.4-6.2.4-5.8-3.4-8.4-9.9-6.6m36.9 0c-3.3.9-4.7 6.2-3.9 14.7.8 9 2.5 11.1 7.6 10.1 4.6-.8 5.5-2.9 5.5-12.5 0-10.8-2.5-14.2-9.2-12.3m23.6.1c-2.3 1.5-3.4 5.3-3.4 12.2 0 10 1.8 13 7.7 13 4.6 0 6.6-4.2 6.5-13.3-.2-9.3-2.1-12.7-7.2-12.7-1.4 0-3 .4-3.6.8m-303.3 13.8c-5.3 6.8 3.3 15.8 9.3 9.8 1.9-1.8 2.2-9.4.4-11.2-2.2-2.2-7.5-1.4-9.7 1.4m61.8-1.6c-4 2.4-4.9 19.1-1.3 23.1 2 2.2 7.1 2.5 9.7.5 1.8-1.4 2.6-18.7.9-21.2-1.9-2.9-6.5-4-9.3-2.4m143.8.8c-2.5 2.8-2.2 8.7.5 10.6 4.9 3.4 10.8.7 10.8-4.9 0-6.3-7.4-10-11.3-5.7m25.6-.8c-2 .8-2.3 1.7-2.3 6.4 0 6.7 4.1 9.4 9 5.8 7-5.3 1.4-15.4-6.7-12.2m22.7 1c-5.2 5.2.6 14.6 7.3 12.1 2.8-1.1 3.7-2.9 3.7-7.6 0-6.1-6.7-8.8-11-4.5m-149.6 9.8c-7.1.3-9.5 2.1-9.6 7.1-.2 5.8 3.3 8.1 12.2 8.1 10 0 13-2 13-8.5 0-6.1-2.9-7.4-15.6-6.7m29.7 1.1c-4.1 4.1-3.6 10.5 1 13.4 3.9 2.4 9.9-2.5 9.9-8.1 0-5.3-7.4-8.8-10.9-5.3m199.9-1.2c-6.7.5-9 2.3-9 7.3 0 3.9 2.3 7 5.2 7 1.8 0 5.3 4 8 8.9 3 5.5 9.8 3.3 11.8-3.7 2.9-10.7-1.5-20.8-8.8-20-.9.1-4.2.3-7.2.5m-346.1 1.9c-3.7 4.5-.6 12.3 4.9 12.4 4.7 0 6.2-1.7 6.2-7 0-3.9-.4-5.2-1.9-6-2.9-1.5-7.7-1.2-9.2.6m169.2 1c-3.4 4.3-2.1 9.3 2.7 11.3 3.8 1.6 6.4.3 8.1-3.8 3.2-7.7-5.8-13.9-10.8-7.5m61.1-1c-3.1 2.2-3 7.7.3 10.9 3 3.1 4 3.1 8.2-.1 7.4-5.6-.8-16.2-8.5-10.8m48 0c-1.6 1.1-2.2 2.5-2.2 5.4 0 6.3 6.6 9.4 11 5 6-6-1.8-15.3-8.8-10.4m24.6 1.1c-1.6 1.6-2.8 3.6-2.8 4.4-.1 2.1-2.5 4.9-4.4 4.9-6.8 0-8.7 6.7-8.3 29.2.2 17.2 1.4 20.9 6.9 21.6 6.1.7 7.2-2.1 7-17.7-.3-13.9-.2-14.1 2.2-16.6 1.4-1.4 3.4-2.5 4.5-2.5 4.3 0 7.2-11.2 5.2-19.9-1.1-5.1-1-4.9-4.7-5.7-2.3-.4-3.4 0-5.6 2.3m-290.4 11.8c-1.9 1.9-2.3 3.1-1.8 5.2 2.1 8.7 12.4 8.5 12.4-.3 0-6.7-6-9.5-10.6-4.9m72.6-.5c-6 6 1.5 16.2 8.5 11.6 3.7-2.4 3.9-8.9.4-11.9-2.8-2.3-6.4-2.2-8.9.3m97.1-.2c-3 2.4-3.1 7.6-.2 10.5 3.5 3.5 41.3 3.6 44.8.1 3.3-3.3 3-7.5-.7-10.2-4.1-3.1-40.3-3.4-43.9-.4m71.5.4c-4.9 7 1.9 14.8 9.5 10.8 2.6-1.4 2.7-9 .1-11.3-2.7-2.5-7.8-2.2-9.6.5m72.8.3c-1.9 2.9-1.4 9.3.8 10.7 4.3 2.7 9.8-.6 9.8-5.8 0-6.9-7.1-10.2-10.6-4.9m-349.7 11c-5 4.7-2.4 12.5 4.1 12.5 6.3 0 9.5-7.5 5-11.6-3.7-3.5-6-3.7-9.1-.9m392.9-1.6c-6 .9-9.1 4-8.2 8.5.7 3.1 3.1 5.5 5.8 5.6 3.3 0 5.8 4.8 5.8 11.2 0 7.3-.9 9-6.1 12-2.5 1.4-4.6 3.5-5.4 5.5-1.9 4.6-6.9 7.4-11.7 6.7-10.2-1.7-12.6.8-13 13.1-.2 8.3.5 9.7 6.1 12.3 4.7 2.2 6.1 5.3 6.1 13.4 0 6.7 2.4 10.8 6.5 10.8 3 0 4.8 4.1 5.5 12.2.9 10.6 2.2 11.8 12.5 11.8 10.5 0 11.9-1.3 12.3-11.8.5-9.5-.5-11.7-5.9-13.9-3.3-1.3-4.5-2.5-6-6s-2.7-4.7-6.2-6.2c-5.2-2.3-5.7-3.2-5.7-12 0-7.5.8-9.1 6.1-11.5 2.5-1.2 4.2-2.9 5.4-5.6 1.3-2.9 2.9-4.4 6.1-5.9 5.3-2.5 6.4-4.4 6.4-11.3.1-7.8 1.7-10.7 6.9-12.7 8.1-3 7.6-9.7-.9-14.1-2.9-1.5-4.6-3.3-6.1-6.5-1.4-3.1-3-4.7-5.1-5.4-3.3-1.2-3.8-1.2-11.2-.2m-369 2c-4.4 4.8-1.4 12.1 4.9 12.1 4 0 5.5-1.6 5.5-6 0-6.7-6.5-10.4-10.4-6.1m24.9.6c-4.1 4-1.5 12.5 3.8 12.5 3.1 0 6.7-4.1 6.7-7.5 0-6.3-6.3-9.3-10.5-5m97.3-1c-3.6 2-4.8 6.7-4.8 19.5 0 13.4 1.7 17 8 17 5 0 5.8-1.4 6.1-10.5.3-8.6 1.3-11.1 5.2-12.5 6.7-2.3 9-8.7 4.7-13-2.5-2.5-14.9-2.8-19.2-.5m34.9.5c-3.6 2.8-3.6 7.2-.1 10.6 5.8 5.9 14.7-2.7 9.7-9.4-2.6-3.4-6.2-3.9-9.6-1.2m84.3.2c-4 4.4-1.5 11.8 4.1 11.8 5.3 0 6.9-1.5 6.9-6.5 0-6.7-6.7-9.9-11-5.3m72 1c-2.4 2.6-2.5 4-.5 7.7 4.2 8.3 14 1.7 10.6-7.2-1.4-3.5-7-3.8-10.1-.5m24-.3c-2.4 4.6.1 11.1 4.3 11.1 5.9 0 9.1-7.5 4.9-11.3-2.6-2.4-7.9-2.2-9.2.2m-348.9 11c-3.2 3.2-2.9 9.8.4 11.3 6.7 3 14-5.3 8.9-10.2-3.1-3.1-6.9-3.5-9.3-1.1m108.1-.3c-1.7 1.2-2.2 2.5-2.2 5.9 0 7.3 6.6 10 11.7 4.9 6.1-6.2-2.3-15.9-9.5-10.8m76.8-.9c-5 1.6-6 2.7-6 6.2 0 6.3 2.8 8.1 12.5 8.1 9.6 0 13.5-3.2 11.9-9.7-1.1-4.1-11.7-6.8-18.4-4.6m32.2 1.3c-4.5 4.2-1.7 13 4.1 13 6 0 9.2-10.1 4.2-13.4-3.3-2.1-5.7-2-8.3.4m49.7-.6c-1.3.6-2.7 2.4-3.2 4.1-1.8 5.8-3.2 6.5-12.2 6.5-7.2 0-8.4.3-10.3 2.3-2.5 2.7-2.9 7.4-.8 10.3 2 2.6 31.5 2.9 34.1.4 1.9-1.9 2.3-20.3.6-22.4-1.6-1.9-5.7-2.5-8.2-1.2M105 151.9c-3.6 6.9 2.6 14.5 8.6 10.6 2.7-1.7 3.4-9.1 1.2-11.3-2-2-8.6-1.5-9.8.7m314 0c-4 7.6 3.8 14.4 9.6 8.5 4.5-4.4 1.4-10.4-5.3-10.4-2.2 0-3.6.6-4.3 1.9"/>
    <path d="M443.6 152.2c-.8 1.3-1.7 3.3-2.1 4.6s-2.6 3.2-5.5 4.7c-6.5 3.3-8 9.8-2.8 12.6 2.7 1.5 15.2 1.3 17.7-.3 4.6-2.8 5.7-17.3 1.7-21.7-2.6-2.8-7.2-2.7-9 .1M69.7 163c-2 1.6-2.7 3-2.7 5.5 0 6.3 8 8.9 11.9 3.9 5.1-6.4-2.8-14.4-9.2-9.4m85.5-1.3c-2.6 1-4.4 6.3-3.2 9.3 3.1 7.4 14 4.7 14-3.4 0-3.8-6.8-7.5-10.8-5.9m83.5 2.1c-4.8 5-2.3 11.2 4.4 11.2 4.4 0 5.9-1.8 5.9-7.4 0-6.4-5.8-8.5-10.3-3.8m171.3-2c-5.7 1.8-7.5 20.1-2.4 24.1s19.4 2.6 21.7-2.1c2-4.1 1.1-6.6-3.3-8.8-4-2-7.5-5.8-8.5-9.1-.8-2.3-5.4-4.8-7.5-4.1m-317 2.1c-3.6 6.9 4.5 15.2 9.8 9.9 2-2 1.5-9.6-.7-10.8-3.2-1.7-7.9-1.2-9.1.9m14.9 10.3c-4.1 1.4-5.6 5.9-3.3 9.8 3.5 5.9 10.8 5 12-1.5 1.1-6.2-3.1-10.2-8.7-8.3m59.2.5c-2.8 2.3-3.7 8.1-1.8 10.7 2.6 3.5 18.7 3.5 22.2 0 2.5-2.5 1.9-8.9-1-10.8-3.5-2.3-16.5-2.2-19.4.1m85.3-.5c-6.2 3-5.9 24.4.4 25 7.1.6 9.1-2.2 9.1-12.7 0-8.3-.7-10.3-4.6-12.3-2.5-1.4-2.2-1.4-4.9 0m36.9-.2c-4.1 1.7-5.3 5.9-5.3 18.8 0 16.9 1.1 18.6 13.2 19 8.3.3 8.7.2 10.7-2.5 3.5-4.3 2.5-8.3-2.5-10.8-7.2-3.5-7.4-3.9-7.4-13 0-7.8-.2-8.5-2.6-10.4-3-2.3-3-2.3-6.1-1.1m22.1 1.5c-5.1 5.1-.5 14 5.9 11.6 5.6-2.2 6.1-9.8.7-12.6-3.7-1.9-3.6-1.9-6.6 1m-228.2-.8c-.7.2-2.4 2.7-3.7 5.4-3.1 6-4.3 6.4-18.5 5.6-16.2-.8-18 .4-18 12.9 0 8.7 2.1 13.4 5.9 13.4 2.3 0 7.1-3.7 7.1-5.4 0-2.5 4.1-6.6 6.5-6.6 3.4 0 4.5 2.7 4.5 11 0 8.8.7 10.2 6.3 12.4 3.8 1.4 4.7 2.4 6.1 6.1 2.5 6.5 9.6 8 12.5 2.6 2-3.7 1.4-52.5-.6-54.9-1.9-2.2-5.9-3.5-8.1-2.5m142.9 1.2c-4 4-.7 12.1 4.9 12.1 4.5 0 7.8-7.6 5.2-11.8-1.6-2.4-7.8-2.6-10.1-.3M197.7 186c-8.7.6-10.9 3-9.1 9.6.4 1.4 2 2.6 4.5 3.4 5.8 2 6.7 3.4 7.1 12.8.5 11.5 5.4 15.7 11.3 9.7 2.4-2.3 2.5-2.9 2.5-16.3 0-18.7-1.4-20.4-16.3-19.2m164.8-.3c-5.7 1.4-7.4 8.1-3.2 12.1 2 1.9 3.5 2.2 10.1 2.2 8.9 0 10.8-.8 12.6-5 3-7.2-7.4-12.2-19.5-9.3m120.5.6c-1.4.7-3.2 2.7-4.1 4.5-2.4 4.6-3.8 6.1-7.6 7.7-3.6 1.5-5.5 5-4.6 8.6.9 3.9 3.1 4.9 11.2 4.9 8.9 0 9.8.4 12.5 6.2 2 4.1 2.3 4.3 6.8 4.6 6 .4 6.3-.4 6.3-19.1v-13.9l-2.8-2.4c-3.2-2.8-13.2-3.4-17.7-1.1m-341.2 1.4c-4.9 5.8.7 14.8 7.1 11.4 6.7-3.6 4.9-13.1-2.4-13.1-1.8 0-3.8.8-4.7 1.7m180.9.1c-4 4.4.8 13.9 6.3 12.5 2.7-.7 6-5 6-7.9 0-5-8.9-8.4-12.3-4.6M154.9 199c-4.3 2.5-4.9 19-.8 23.1 3.8 3.8 10.1 1.1 11.6-4.9 1-4.1-.5-15.3-2.3-17.3s-5.9-2.4-8.5-.9m23.2.6c-4.5 3.2-1.2 12.3 4.5 12.4 6 .1 9.2-11 3.8-13-3.6-1.4-5.6-1.2-8.3.6m60.1.6c-4.9 5.3-3.5 20.4 2.2 23 6.2 2.8 10.2-3.8 9.4-15.5-.6-8.7-6.7-12.6-11.6-7.5m-107.5 10.9c-5.2 4-2.6 12.9 3.7 12.9 8.6 0 9.4-11.9 1-14.4-1.3-.4-3 .1-4.7 1.5m132.9 0c-6.4 5-.5 15.6 6.5 11.8 4.9-2.6 4.8-9.9-.1-12.4-3.6-1.9-3.2-1.9-6.4.6m116.3-1.2c-7.7.7-10.9 2.8-10.9 7.2 0 4.6 4 6.9 12.2 6.9 9.7 0 12.8-1.8 12.8-7.6 0-5.7-3.7-7.4-14.1-6.5m29.4.3c-7.7 3.7-2.8 15.8 5.1 12.8 2.7-1 4.3-6.1 3.2-9.8-.5-1.5-4.8-4.5-5.9-4.1-.1 0-1.2.5-2.4 1.1m-86.7 2c-5.3 7.5 3 15.4 9.4 9 3.6-3.7 3.8-5.5.5-8.7-3.1-3.2-7.8-3.3-9.9-.3m24 0c-4.9 6.9 2.4 15 9.2 10.2 2.7-1.8 3.1-8.4.6-10.8-2.4-2.4-8-2-9.8.6m159.1 10c-4.8 1.7-4.9 9.3-.2 12.4 3.8 2.5 8.6.9 9.7-3.3 1.7-6.4-3.2-11.2-9.5-9.1m-472.5 1.4C28.5 226.8 32 236 38 236c1 0 2.9-.9 4.4-2.1 7.1-5.5-1.8-15.5-9.2-10.3m146.1-.6c-4.5 1.8-4.1 10.4.5 12.1 3.9 1.5 14.5 1.3 17.8-.3 4.1-1.9 4.3-9.5.4-11.5-2.8-1.4-15.4-1.6-18.7-.3m71.2 1.5c-3.3 3.2-3.2 6.8.1 9.4 7.3 5.7 14.7-3.1 8.6-10.2-2.1-2.4-5.9-2.1-8.7.8m26.4-1.8c-4 1.1-4.9 5.3-4.9 24.3 0 19.4.8 23.2 5.1 24.5 7.8 2.5 9.7-2.6 9.4-25.5-.3-21.1-.1-19.1-2.5-21.8-2-2.1-3.6-2.5-7.1-1.5m34.3.9c-3.2 2.2-3.3 19.3-.2 22.4 5.2 5.2 12-.5 12-10 0-11-5.5-16.8-11.8-12.4m24.5-.1c-4.8 4.7-2.1 12.4 4.4 12.5 4.9 0 8.3-8.8 4.6-11.9-2.6-2.1-7.3-2.4-9-.6m59.8 1c-6.1 6.1 1.2 14.9 8.3 9.9 3.4-2.4 3.2-10.1-.4-11.4-3.8-1.5-5.3-1.2-7.9 1.5m25.7-1.8c-4.7 1.9-6.4 29.2-2.1 34.7 4.8 6.1 11.4 1.6 11.9-8.4 1.2-22-1.6-29.6-9.8-26.3M480 224c-3.3 3.3-2.3 9.4 1.9 10.8 8.3 2.9 13.1-7.6 5.4-11.7-3.1-1.6-5-1.4-7.3.9M57.1 236.6c-3.3 4.2-1.3 10.4 3.3 10.4 2.4 0 6.4 3.9 7.1 6.9.5 2.2 1.8 3.5 5.3 5.3 3.6 1.7 5.2 3.3 6.7 6.6 3.2 6.8 6.8 8 11 3.7 5.7-5.7 2.5-23.5-4.3-23.5-2.4 0-4.7-2.5-6.6-7.1-1.7-4-4.2-4.9-14.8-4.9-4.9 0-5.9.3-7.7 2.6m60.1-.3c-4.7 5-.5 12.5 6.6 11.8 2.3-.2 5.2-4.1 5.2-6.9 0-6.4-7.5-9.5-11.8-4.9m24.5-.5c-4.1 4.5-.9 12.2 4.9 12.2 2 0 7.4-5 7.4-6.8 0-5.6-8.7-9.4-12.3-5.4m24.3-.3c-2.2 2.6-1.9 9.4.5 11.1 6.2 4.6 13.9-3.7 9.6-10.4-1.4-2.2-8.4-2.7-10.1-.7m49.3 0c-6.2 4.3-5.3 21 1.2 23.5 3.1 1.2 8.5-1.1 8.5-3.6 0-2.7 3.2-6.5 6.9-8 5.5-2.3 7.1-8.2 3.3-11.7-2.5-2.3-16.8-2.4-19.9-.2m144.3.6c-4.9 3.9-2.9 9.5 4.3 12 2.4.9 3.8 2.3 5.1 5.3 3.1 7.4 10.6 8.5 13 2 2.6-6.7.4-19.3-3.5-20.8-4.1-1.6-16.2-.6-18.9 1.5m133.3-1.4c-2 .5-2.9 4.5-2.9 13.2 0 8 1.7 11.1 6.1 11.1 5.4 0 6.7-1.4 7.4-8.3 1.3-12.3-2.5-18.2-10.6-16M33.5 248.5c-4.7 4.6-3.6 19.8 1.6 22.6 3.3 1.7 7.6-.6 8.9-4.7.9-2.7 2.5-4.2 6.6-6.5 6.8-3.9 7.9-9.6 2.4-12.4-5-2.6-16.5-2-19.5 1m156.7-.9c-3.2 2.2-3.1 8.6.3 10.8 3.6 2.4 7 2 9.4-1 5.3-6.8-2.6-14.8-9.7-9.8m108.9-.2c-2.2 2.7-2.5 8.5-.6 10.6 3.6 4 11.5.7 11.5-4.7s-7.8-9.6-10.9-5.9m48.1.2c-2.8 2-3.1 8.3-.4 10.7 4.3 3.9 11.2.8 11.2-4.8 0-6.2-5.9-9.4-10.8-5.9m-242.1 13c-2.4 3.1-2.6 4.3-.9 7.9 2.2 4.8 9.7 4.6 11.7-.3 3.2-7.7-5.8-14-10.8-7.6m25 0c-2.5 3.2-2.7 6.1-.5 9.2 1.5 2.2 2 2.2 21.7 2.2 23.2 0 25-.5 25.5-6.2.6-7-1.8-7.8-24.9-7.8h-19.8zm96.8.3c-3.5 3.6-3.6 5.4-.4 8.6 2.3 2.4 2.9 2.5 16.5 2.5 16.6 0 19.1-1.2 18-9-.6-4.4-2.7-5-17.2-5h-14zm96.1-.9c-4.4 4.4-1.4 12 4.6 12 3.1 0 7.4-3.7 7.4-6.4 0-5.9-8-9.6-12-5.6m72.1.6c-5.2 6.7-1.8 23.4 4.7 23.4 6.4-.1 9-8.5 6.2-20.4-1.4-6.3-7.1-7.8-10.9-3m37.4-1.2c-2.2 1.6-3.4 9.5-2.5 16.7 1.3 10.3 9.2 10.9 13.3 1 1-2.4 2.8-4 5.8-5.5 5.4-2.6 6.7-7.9 2.8-11.5-2.8-2.6-16.2-3.1-19.4-.7"/>
    <path d="M479.9 260.1c-1.9 1.9-2.1 3-1.7 10.9.4 9.5 1.3 11.4 5.6 12.5 7.8 1.9 8.7 10.5 1.1 10.8-3.1.2-3.6-.2-5.9-4.7-6.1-11.9-12.8-8.7-12.8 5.9 0 8.5.8 10.8 4.4 12 4.2 1.4 6.3 3.2 7.9 7.1 2.8 6.8 9.3 6.5 12.3-.5 1.3-3.1 2.8-4.5 6.4-6.2 5.4-2.5 6-3.8 6.2-13.1.2-7.3 1.3-9.4 5.6-10.3 5.2-1.1 6.4-3.6 6.4-13.4.1-7.4-.2-9.2-1.8-11-3.5-3.9-9.6-2.2-10.9 3.1-2.2 8.7-9.2 9.9-11.5 1.9-2-6.7-7.3-9-11.3-5M51 270.8c-4.4.4-5.8 1.6-7.7 6.3-1.2 3-2.4 4.2-5.8 5.4-8.3 3.2-8.7 10.7-.6 13.5 5.9 2 5.9 2.1 6 30 .1 26.2.6 29.2 5 29.8 4.4.7 6.9-.7 8.1-4.2 1.2-3.7 4.4-7 7.8-8.1 2.9-.9 4.2-4.2 4.2-10.9 0-8.9-.8-11.3-4.4-12.7-7-2.8-8.6-7.2-4-10.8 3.3-2.6 4.6-2 7.5 3.7 1.5 3 3.6 5.3 5.6 6.3 5.8 2.9 6.3 3.7 6.3 10.4 0 9 1.3 12 6.5 14.5 2.9 1.4 4.7 3.1 5.6 5.3 1.8 4.7 3.9 6.7 6.8 6.7 4.5 0 5.5-1.4 6.2-9 .9-10.4.1-13.1-4.6-15.5-5.8-2.9-6.4-4.2-6.5-12.1 0-8.2-1.8-11.5-7.3-13.4-2.5-.8-4-2.2-5.6-5.4-2.5-5.2-3.3-5.6-11.6-5.6-8.8 0-11.5-1.2-11.5-4.9 0-4.9 2.1-6.1 11.1-6.1s11.9-1.7 11.9-6.8c0-5.3-2.7-6.5-14.7-6.6-6-.1-12.4 0-14.3.2m152.7.3c-7.2 4.2-4.8 24.8 2.9 24.9 8.4.1 10.7-22 2.7-25.1-3-1.1-3.3-1.1-5.6.2m109.3-.4c-3.4 1.4-4 3.2-4 11.5 0 12.1 2.4 15.5 9 12.8 9.6-4 4.7-28-5-24.3m37.2 0c-5.3 1.1-6.4 10.8-1.4 12.8 5.4 2.2 15.7 1.7 18.5-.9 3-2.8 3.6-7 1.4-10-1.4-1.9-13.1-3.1-18.5-1.9m107.1.3c-1.9.8-2.3 1.7-2.3 5.4 0 7.2 5 10 9.8 5.6 5.5-5.2-.5-13.8-7.5-11m-279.8 2c-4.7 5.2 2.1 13.4 8.3 9.9 3-1.6 4.3-7.9 2.1-10.5-1.8-2.1-8.2-1.8-10.4.6m84.7-.8c-3.7 3.7.5 12.8 5.9 12.8 4.7 0 7.2-8.5 3.8-12.7-1.4-1.6-8.1-1.7-9.7-.1"/>
    <path d="M84 282.7c-6.4 2.5-4.4 13.3 2.5 13.3 5.9 0 8.4-7.2 4-11.5-2.4-2.5-3.7-2.8-6.5-1.8m33.9 2.4c-4.1 4.4-4.3 16.1-.4 20.3q6.6 7.05 12.6-4.5c1-2.1 2.6-3.9 3.3-3.9 2.6 0 7.6-5.1 7.6-7.6 0-7.8-16.9-10.9-23.1-4.3m50.6-1.9c-6.7 3.6-5.6 12.8 1.6 12.8 6.7 0 9.5-7.8 4.3-11.9-3.1-2.4-3.2-2.4-5.9-.9m58 1.3c-2.8 2.7-3.1 4.8-1.2 8.4 3.1 6.2 11.7 3.4 11.7-3.8 0-6.8-5.8-9.3-10.5-4.6m60.1.6c-2.9 3.4-3.1 4.1-1.5 7.2 2.5 4.6 7.6 5.1 10.8 1.1 2.7-3.5 2.7-6.5-.2-9.2-3.2-3-6.1-2.7-9.1.9m48.5-.5c-5 6.4.5 14 7.6 10.6 4.4-2.1 4.8-7.9.7-11.1-3.6-2.8-5.8-2.6-8.3.5m48.1-.4c-6.4 6.9 2 16.1 9.1 10 2.1-1.8 2.3-8.4.4-10.1-3-2.4-7.1-2.4-9.5.1m38-1.5c-4.6 1.8-6.3 25.3-2.4 33.3 3.7 7.6 11.7 4.6 12.3-4.5.9-15 0-23.6-3-26.6-2.9-2.8-4.3-3.3-6.9-2.2m22.5 2.1c-2.6 2.8-2.4 19.2.1 21.5s6.5 2.1 8.8-.4c3-3.4 3.3-16.5.4-20.2-2.5-3.2-6.9-3.6-9.3-.9m-263.3 10c-3.1.5-4.4 4.3-4.4 13 0 9.4 1.5 12.2 6.4 12.2 5.7 0 7.1-2.8 6.9-12.8-.4-10.6-2.4-13.5-8.9-12.4m70 1.9c-1.1 1.6-2.4 4-3.1 5.5-.7 1.7-2.7 3.4-5.1 4.3-12 4.8-5 15.5 9.3 14.2 8.6-.8 10.5-3.2 10.5-13.4 0-6-.4-8.1-2.1-10.4-2.7-3.9-7-4-9.5-.2m49.1-.2c-2.3 2.2-2.5 3.2-2.5 10.8 0 9.1 1.2 11.9 5.7 13.2 7.2 2.1 10.9-18.3 4.2-23.9-3.8-3.2-4.4-3.2-7.4-.1m48.1-.4c-6.2 4.8-.2 15.4 6.7 11.8 5-2.7 5.4-10 .7-12.4-3.8-1.9-4.2-1.9-7.4.6m24 0c-5.2 4.1-2.5 11.9 4.1 11.9 6.9 0 9.1-10.6 2.6-13.1-3.3-1.2-3.7-1.2-6.7 1.2m-156.9.1c-2.7 2.2-3.1 6.1-.7 9.1 4.2 5.3 11 2.5 11-4.6 0-5.2-5.9-7.7-10.3-4.5m-72.1 11.9c-3.4 2.7-3.6 8.2-.3 10.3 3.6 2.4 14.7 3.1 18.5 1.2 5.4-2.8 5.5-9.4.2-12.1-4.5-2.3-15.1-2-18.4.6m133.3-1.1c-2.7 1.5-4.3 6.5-2.9 8.9 3 5.7 10 6 12 .5 2.5-6.5-3.5-12.7-9.1-9.4m47.2 1.6c-4.2 5.3-1.6 11.4 4.7 11.4 6.5 0 9.2-6.7 4.6-11.4-3.4-3.3-6.7-3.3-9.3 0m72.4-.1c-3 3-3.1 5.4-.4 8.9 3.9 5 10.9 2.6 10.9-3.7 0-7.1-5.8-10-10.5-5.2m110.8-1.5c-5.4 2.2-5.6 11-.2 12.9 5.8 2 10.7-2.1 9.4-8-1-4.7-4.8-6.7-9.2-4.9m-304.4 2.1c-3.2 3.2-2.5 19.2.9 21.9 2.6 2.1 7.8 1.3 10-1.7 1.5-2.1 1.6-15.3.1-18.7-1.9-4-7.7-4.8-11-1.5m254.4-1.4c-2.2.8-2.7 7-.9 9.8 3.7 5.7 12.5 1.2 10.9-5.6-1-4.1-5.5-6.1-10-4.2m-96.7 12.4c-5.2 4.1-2.4 12.9 4.2 12.9 5.4 0 8.3-8.9 4.2-13-2.6-2.6-5.1-2.5-8.4.1m-242.4.9c-2.9 2.7-2.8 5.2.4 8.9 3.2 3.8 5.7 3.9 8.9.5 6.5-7-2.4-15.8-9.3-9.4m50.1-.8c-3.8 1.8-4.4 7.7-1.1 10.8 4.5 4.1 10.8 1.2 10.8-5.1 0-5.7-4.4-8.3-9.7-5.7m216.3.3c-3.7 3.7-5.1 24-2.1 31 2.3 5.7 9.2 6.7 11.4 1.9 2-4.5 1.4-30.8-.7-32.7-2.3-2.1-6.6-2.2-8.6-.2m23.6.8c-2.9 3-2.8 6.2.3 9.2 4.3 4.4 9.3 2.3 10.2-4.2.9-6.9-5.8-10-10.5-5m36-.3c-4.6 7.3 4.4 16.2 9.7 9.5 2.5-3.3 2.7-6.2.5-9.3-2-3-8.4-3.1-10.2-.2m25.3-.7c-1.4 1.1-2 3.3-2.5 9.9-.8 10-1 10.4-6.6 12.8-4.8 2.1-6.2 4.9-4.5 9.3 2.6 6.7 18.5 6.5 22.7-.3 5.8-9.1 10.3-9.8 12.4-1.8 2 7.2 9.6 8.9 12.7 2.8 1.4-2.7 1.7-20.7.5-27.5-1.5-8.4-9.6-8.5-13.2 0-3.2 7.4-7.8 7.4-11 0-2.6-6-6.6-8-10.5-5.2m-235.4 10.5c-8.7.7-12 6.4-6.6 11.7 2.2 2.2 3.2 2.5 10.5 2.5 9.4 0 12-1.6 12-7.5 0-5.4-5-7.5-15.9-6.7M130 333c-6 6-.7 12 10.4 12 11.8 0 17.2-6.4 10.4-12.3-3.1-2.6-18-2.5-20.8.3m61.2-.8c-1.3.7-2.6 2.4-2.9 4-.6 2.9-4.5 6.8-6.9 6.8-2.3 0-5.4 3.8-5.4 6.5 0 4.9 4 7.5 11.7 7.5 12 0 13.2-1.2 14-12.9.7-10.4-3.6-15.3-10.5-11.9m70.9 1.4c-3.5 4.5-3 16.6.8 20.5 4.1 4.1 16.7 4.4 20.6.4 4.2-4.1 3-7.9-3.5-11.4-1.9-1-4.5-3.6-5.7-5.7-4.1-7.4-8.3-8.7-12.2-3.8m24.5-.4c-3.1 4.3-1 10 4 11.2 3.5.9 7.4-2.6 7.4-6.5 0-5.9-8.2-9.3-11.4-4.7m24.6-.6c-2 1.4-2.2 2.3-2.2 10.5 0 12.1 1.5 13.9 12.2 13.9 13.8 0 18.5-8.1 7.9-13.4-3.6-1.9-5.2-3.5-6.6-6.6-2.7-6-6.8-7.6-11.3-4.4m24.3-.2c-4.4 3.2-1.7 11.6 3.7 11.6 5.2 0 6.8-1.6 6.8-6.6 0-5.9-5.7-8.6-10.5-5m96.2.4c-3.6 4-.8 12.2 4.2 12.2 3.2 0 7.1-3.9 7.1-7 0-5.8-7.7-9.3-11.3-5.2m-83.9 10.9c-3 .8-3.9 20.6-1.1 23.4 1.5 1.5 8.3 1.4 9.9-.3.9-.8 1.4-4.4 1.6-10.7.3-11.7-2.1-14.6-10.4-12.4m72.5.1c-3.9 2.5-3 10.9 1.2 12.6 3.9 1.5 9.5-2.6 9.5-6.9 0-4.1-7.2-7.9-10.7-5.7m-350.7 1.5c-4.1 3-.9 10.7 4.5 10.7 5 0 7.5-5.1 4.9-10.1-1.3-2.3-6.7-2.6-9.4-.6m37 11.8c-1.4 1.1-2.6 2.6-2.6 3.3 0 2.4-4 6.4-7.1 7.1-5.8 1.3-6.4 9.4-.9 12.2 3.1 1.6 13.1 1.7 16.4.1 3-1.3 4.6-5.9 4.6-13 0-10.4-4.3-14.5-10.4-9.7m37.3-1.4c-5.5 1.4-4.9 8.8 1.1 12.3 2.5 1.4 5.4 4.2 6.5 6.2 4.3 7.6 7.3 8.7 11.5 4.3 4-4.3 4-17.5-.1-21.6-1.8-1.8-13.8-2.6-19-1.2m71 1.2c-1.3 1-2.8 3.4-3.4 5.2-.9 2.5-2 3.7-4.4 4.5-7.1 2.3-9 6.8-5 11.8 1.9 2.4 2.6 2.6 9.8 2.6 8.7 0 11.3-1.2 13.5-6.5 1.1-2.5 2.8-4 6.3-5.7 4.5-2.1 4.8-2.6 5.1-6.4.5-6.3-1.2-7.4-11.3-7.4-6.6 0-8.7.4-10.6 1.9m180.3.4c-4.3 4.5-1.4 11.1 4.9 10.9 4-.1 5.9-2.3 5.9-6.8 0-6.2-6.5-8.7-10.8-4.1m38.8-1.6c-3.1 1.1-4 3.7-3.9 11.2.1 9.5.5 10.7 5.4 13.4 2.7 1.5 4.8 3.9 6.6 7.2 3.2 6.1 5.9 6.9 9.9 3 1.6-1.5 3.1-3.8 3.4-5.1.4-1.5 2.2-3.2 4.9-4.5 9-4.6 8.7-12.1-.6-14.3-2-.5-3.3-1.7-4.2-4-2.4-5.7-5.8-7.6-13.4-7.5-3.6 0-7.3.3-8.1.6m-377.4 2.5c-1.1 1.6-1.6 4.6-1.6 10.4 0 9 .1 9.1 7.2 12.7l4.3 2.2.5 8.5c.7 12.5 3.2 14.5 15.4 13 8.7-1.1 9.7-2.1 10.4-10.8.7-10.1 0-11.7-5.9-14.7-4-2.1-5.4-3.5-6.9-6.9-1.4-3.4-2.5-4.6-4.8-5.1-3.6-.7-5.5-2.7-7.5-7.8-2-4.6-8.3-5.5-11.1-1.5m24.6-1c-1.9 1.9-1.4 6.6.8 8.8 4.1 4.1 10 1.6 10-4.4 0-4.1-1.6-5.6-6-5.6-2 0-4.1.5-4.8 1.2"/>
    <path d="M479 358.6c-.6 1.4-1 5.2-1 8.5 0 7.4-1 9.3-6.1 11.9-6.9 3.6-7.4 11.4-.8 13.7 8.7 3 17.2 1.2 19.5-4.3 2.4-5.7 1.6-27.4-1-30.3-2.9-3.2-9.3-2.9-10.6.5m-301.4 10.6c-3.5 5-.5 11.8 5.1 11.8 3.9 0 6.3-2.8 6.3-7.2 0-6.4-8-9.6-11.4-4.6m73.2-.5c-.8 1-2.1 3.3-2.8 5.2-.9 2.2-2.5 3.8-4.7 4.7-7.4 3.1-9.1 7.4-4.7 11.8 4 4 18.2 4 21.3 0 5.3-6.7 1.8-23.4-4.8-23.4-1.5 0-3.5.8-4.3 1.7m34.9 1.8c-2.3 4.8-2.4 26.2-.2 30.4 2.5 4.9 7.2 5.5 10.4 1.5 3-3.8 3.1-29.6.2-33.2-3.2-3.7-8.3-3.1-10.4 1.3m25-1.7c-5.5 6 2.1 15.8 8.2 10.7 4.1-3.6 4.7-5.9 2.1-9.5-2.5-3.6-7.7-4.1-10.3-1.2m24.2-.2c-1.8 2.1-2.9 13.8-1.7 18 1.7 6.4 6.4 8.3 10.6 4.4 3.3-3.1 3.3-20.1 0-22.4-2.9-2.1-7.2-2-8.9 0m47.5.9c-3 4.6 0 11.4 5.1 11.5 5.8.1 9-8.4 4.7-12.3-2.9-2.6-7.8-2.2-9.8.8m24.2.1c-2.3 3.4-1.7 7.3 1.5 9.7 6.1 4.5 12.7-3.2 8.9-10.4-1.7-3-8.3-2.6-10.4.7m-43.1 9.2c-6.1 1.3-8.3 8.1-4 12.2 3.2 3.1 15.4 3.2 19.5.2 3.5-2.7 4-8.5.8-10.6-2.3-1.5-12.6-2.7-16.3-1.8M118 381c-3.9 3.9-1.2 12 4 12 2.7 0 7-4.6 7-7.5 0-5.2-7.3-8.2-11-4.5m26-1.3c-4.2 1.5-5.3 7.5-2 11.1 2.6 2.8 6 2.8 8.8.2 5.4-5.1.1-13.8-6.8-11.3m277.2 0c-2.5 1-4.2 6.2-4.2 13.1 0 7.6-1.2 9.6-6.6 11.1-4 1-5.4 4.4-5.4 12.9 0 13.6 7.4 16.5 13.4 5.2 2.1-3.9 2.8-4.5 5.7-4.5 2.8 0 3.5.6 5.6 4.5 1.3 2.5 4 5.6 6.1 7 2 1.4 4.8 4.7 6.1 7.3 5.9 11.5 14.2 5.3 14-10.5-.2-20.2-1.2-22-13.5-22.4-10.6-.4-11.3-1.1-11.4-10.7 0-10.6-3.7-15.5-9.8-13m-315 12.9c-4.8 3.3-2.1 11.7 3.8 11.7 3.9 0 6-2.4 6-6.9 0-5.8-5-8.2-9.8-4.8m24 0c-2.4 1.7-3 6.1-1.2 9.5 1.4 2.6 8 2.6 10.3.1 5.3-5.8-2.7-14.1-9.1-9.6m35.8.4c-3.6 3.6-2.3 10.4 2.2 11.9 4.6 1.6 8.8-1.7 8.8-6.9 0-6.3-6.7-9.3-11-5m23.7-.2c-2.4 2.6-2.2 8.5.3 10.7 5.6 5.1 14.4-2 10.9-8.8-2.2-4.2-8.3-5.2-11.2-1.9m24.8.7c-3.7 3.6-2.7 9.2 2.2 11.4 4.3 2 14.7 1.4 17.7-1 3.5-2.7 3.7-9 .4-11.3-3.9-2.8-17.3-2.2-20.3.9m109.7-1.5c-7.3 3-2.4 15.9 5.1 13.1 2.8-1.1 5.7-4.7 5.7-7.2 0-4.3-6.2-7.7-10.8-5.9m22.8 1c-3.5 3.5-1.6 11.5 3 12.1 5.3.6 8-1.7 8-6.7 0-4.1-2.9-7.4-6.5-7.4-1.4 0-3.4.9-4.5 2m37.3-1c-5.6 2.3-3.3 11.1 3.4 12.9 12.8 3.6 22.6-3.3 16.7-11.7-1.6-2.4-15.1-3.2-20.1-1.2m73.9-.3c-4.4.9-5.3 10.1-1.2 12.3 7.3 3.9 13.4-4.6 7.5-10.5-1.3-1.4-2.8-2.4-3.2-2.4-.4.1-1.8.4-3.1.6M94.3 404.5c-4.8 3.4-2.2 12.5 3.5 12.5 5.3-.1 8.4-7 5.4-11.7-1.3-2.1-6.5-2.6-8.9-.8m48.3 0c-2.3 2.3-2.9 5.4-1.6 8.5 2.1 5 9 4.9 11.6-.1 3.1-6.1-5.2-13.1-10-8.4m120.7 0c-4.3 3-4.9 18.3-.9 22.3 2.6 2.6 14.3 3.5 18.5 1.4 6.4-3.1 5.8-11.6-1-13.2-1.3-.3-3.4-2.1-4.6-4-4.5-7-5.4-8-7.6-8-1.3 0-3.2.7-4.4 1.5m35.7-.5c-2.6 1.6-2.1 21.4.5 23.4 6.2 4.7 10.9-.4 11-11.5 0-7.6-.2-8.2-2.8-10.5-2.9-2.5-6.1-3-8.7-1.4m74 .3c-1.4.7-3 2.7-3.6 4.5-1.3 4-2.6 5.3-6.6 6.6-6.7 2.2-7.7 10.3-1.6 12.6 5.5 2 6.3 2.6 7.4 5.9 3.1 9.4 11.9 9.4 13.8-.1 2-9.8-.3-29.8-3.4-29.8-.5 0-1.4-.2-2.2-.5-.7-.3-2.4.1-3.8.8m-255.9 2.3c-3.3 4.2-3.1 16.5.4 19.9 3.6 3.7 17.4 3.7 21 0 4.2-4.1 2.7-8.3-3.8-11-2.6-1.1-4.2-2.8-6-6.2-3-6.1-8-7.3-11.6-2.7m-36 11c-2.8 3.5-2.6 6.9.4 9.9 2.8 2.9 3.6 3 7.4 1 4.8-2.4 5.5-7.2 1.6-11-3.2-3.3-6.8-3.2-9.4.1m85.8-1.3c-6.7 5.1-.5 15.1 7 11.3 2.7-1.4 3.1-2.2 3.1-5.6 0-5.8-5.7-9-10.1-5.7m23.6 1.1c-2.8 2.8-3.2 6.3-1.1 9.1 1.8 2.4 15.9 3.5 20.6 1.5 3.9-1.6 5-6.2 2.3-9.9-3-4-18-4.5-21.8-.7m47.7-.1c-6.2 6.6-1.5 25.9 5.8 24 8.8-2.3 8.1-26.3-.8-26.3-1.7 0-3.7.9-5 2.3m96.4-.1c-3 4.3-.9 11.8 3.3 11.8 5.6 0 8.1-2 8.1-6.5 0-7.2-7.6-10.7-11.4-5.3"/>
    <path d="M142.6 429.3c-4.2 4.3-2.5 10.2 3.5 12.1 2.6.8 4 2.3 5.8 5.8 3.1 6 4 6.3 19.1 6.1 17.3-.4 19.7-2.5 18.3-16.6-.7-6.8-2.2-8.7-6.7-8.7-3.8 0-5.1 1.2-6 5.7-1.5 6.7-9.7 7.7-11.1 1.3-1.1-5.2-4.8-7.4-13-7.8-6.8-.4-7.6-.2-9.9 2.1m73.2-.7c-1.6.8-2.8 1.6-2.8 1.8s-.4 2.7-1 5.6c-1.8 9.6 1.2 16.4 7.2 16.2 5.1-.1 6-1.9 6.1-12.2 0-11.4-2.9-15-9.5-11.4m72.6-.1c-3.8 2.6-4.7 6.7-4.2 19s2 16.5 6.4 17.4c2.9.5 4.6 2.2 6.6 6.7 4.6 10.4 13.5 5.8 13.1-6.8-.2-8.1-1.8-11.1-6.7-13.2-4.6-1.9-5.6-4.2-5.6-12.4 0-9.5-4.4-14.4-9.6-10.7m23.5.4c-4.7 3.8-3.7 22.1 1.3 23.7 6 1.9 9.8-3 9.8-12.6 0-10.8-5.1-15.9-11.1-11.1m36.3-.7c-2.7 1.3-3.8 5.1-2.6 8.7 2.2 6.1 11.6 4.6 12.2-1.9.5-5.9-4.4-9.3-9.6-6.8m47.4 1.2c-4.5 4.5-2.2 11.6 3.8 11.6 4.4 0 5.7-1.2 6.3-5.6.9-7.1-5.4-10.8-10.1-6m25.8-.6c-.6.4-2.3 2.7-3.8 5-1.9 3-4.1 5-7.1 6.3-11 4.9-5.6 13.9 8.4 13.9 10.7 0 12.1-1.5 12.1-12.8 0-10.2-4.4-15.9-9.6-12.4m-158.2 11.8c-4.9 3.4-1.9 12.4 4.1 12.4 7 0 8.7-10.5 2.2-13-3.4-1.3-3.7-1.3-6.3.6m-133.5 1.2c-3.7 4-.7 12.2 4.3 12.2 3.1 0 7-4.4 7-7.8 0-5.5-7.6-8.5-11.3-4.4m204.9.4c-1.9 2.7-2.2 16.4-.5 20.1 2.1 4.5 19.3 4.8 22.4.4 3-4.3.9-9.9-4.2-11.2-3.8-.9-6.3-3.3-6.3-6.1 0-5.3-8.3-7.6-11.4-3.2m24.7-1.4c-2.7 1.7-2.7 6.9 0 9.6 6.1 6.1 14.1-1.2 9.1-8.2-1.5-2.3-6.6-3-9.1-1.4m24.3.7c-5.5 5.6.2 14.6 7.2 11.3 3-1.5 4.4-8.7 2.1-11.4-1.5-1.9-7.4-1.8-9.3.1m-191.3 11c-6 3.2-5.2 10.8 1.4 12.2 5.3 1.1 13.5.8 16.1-.6 3.2-1.7 4-7.7 1.4-10.3-2.8-2.8-14.3-3.6-18.9-1.3m39.2-.7c-3.9.5-5.3 1.8-7.2 6.4-1.1 2.8-2.6 4.3-6.1 6-4.1 2-4.7 2.7-5 5.9-.5 6.1 2 7.4 15 7.6 15.5.3 17.8-.3 20.4-5.4 2.9-5.8 4.3-7.3 7-7.3 4.5 0 7-7.4 4-11.6-1.4-1.9-18.5-2.9-28.1-1.6m139.7 1.8c-4.7 3.3-1.7 11.4 4.3 11.4 4 0 6.5-2.9 6.5-7.5 0-5.4-5.7-7.5-10.8-3.9m-228 10.1c-2.1.8-4.4 6.2-3.6 8.6 2.3 7.2 13.4 6.2 13.4-1.2 0-5.8-4.8-9.4-9.8-7.4m120.2 1.6c-2.9 2.3-3.1 6.6-.6 9.7 2.6 3.2 16.8 3.6 20.1.6 3.7-3.4 2.9-9.4-1.4-11.2-4.9-2-15.1-1.5-18.1.9m60.2-.2c-3.9 3-3.5 9.9.7 11.3 8.3 3 14.3-8 6.4-11.9-3.8-1.9-3.9-1.9-7.1.6m61.7-.2c-5 3.1-5.3 9.5-.4 12 3.1 1.7 16.3 1.4 18.9-.5 2.9-2 3.1-9.3.4-11.7-2.7-2.5-14.7-2.3-18.9.2m-207.1.9c-1.8 1.8-3.7 11.5-2.8 14.4.2.7.7 2.6 1 4.1.5 2.1 1.8 3.3 5.2 4.7 3.6 1.6 4.8 2.8 6.4 6.4 2.4 5.7 4.2 6.6 13.5 6.6 11.2 0 13-2 12.2-13.7-.6-10.9-1.3-11.6-11.4-12.2-8.8-.4-11.7-1.8-13.3-6.5-1.7-5.2-7.5-7.1-10.8-3.8m182.1-.8c-2.9 1.2-3.8 5.1-2.1 8.7 2 4.1 9.3 4.7 10.8.8 3-7.8-1.3-12.5-8.7-9.5m-20.6 11.1c-4.9.8-5.9 1.9-5.9 6.2 0 4.6.6 5.5 5.2 7.3 2.7 1.1 4.3 2.6 5.6 5.2 3.4 7.4 6.9 9 11.4 5.4 2.9-2.3 3.5-19.1.8-21.8-1.9-1.9-11.8-3.2-17.1-2.3m-184.9.6c-2.6.7-3.8 5.4-2.2 9.1 2.3 5.6 9.9 5.2 12.4-.8 2.3-5.6-3.3-10.3-10.2-8.3M250 478c-2.7 2.7-2.5 6.1.5 9.4 4.2 4.6 10.4 1.6 10.5-5.1 0-5.6-6.9-8.4-11-4.3m61 0c-2.3 2.3-2.5 4.8-.9 8.4 2.7 5.8 11.8 2.3 11.9-4.6 0-5.5-6.9-7.9-11-3.8m60.3-1c-3.9 1.6-2.4 11.2 1.9 12.6 7.3 2.3 12.7-5.8 7.3-11.1-2.5-2.6-5.4-3-9.2-1.5m-85.3 1.9c-2.5 4.9.3 10.1 5.4 10.1 5.4 0 8.7-6.8 5-10.4-2.3-2.3-9.1-2.1-10.4.3m-60.3 10.9c-5.5 6.1 1.8 14.6 9.7 11.6 2.2-.8 2.2-9.7 0-11.8-2.1-2.2-7.7-2-9.7.2m37.2 0c-1.5 1.3-2.2 3-2.2 5.2 0 5.2 3 7 11.7 7 9.5 0 12-1.4 12.4-6.7.4-5.8-2-7.3-11.9-7.3-6 0-8.2.4-10 1.8m35.7.3c-3 4.4-.3 11.9 4.5 11.9 3 0 6.9-3.9 6.9-7.1 0-6-8.1-9.4-11.4-4.8m24.6-.5c-2.9 2-3 7.6-.2 10.4 4.2 4.2 11 1.2 11.2-4.9.2-5.9-6-9-11-5.5M238.3 501c-3.3 1.3-3.2 7.8 0 10.8 6.6 6.2 15.4-2.1 10.1-9.6-1.6-2.4-5.9-2.9-10.1-1.2m49 .5c-5 3.5-1.7 12.5 4.5 12.5 3.8 0 6.2-2.8 6.2-7.2 0-5.6-6.1-8.6-10.7-5.3m23.4.3c-2.1 2.3-2.2 7.1-.1 10 3.6 5.2 13.6.1 12-6.2-1.2-4.7-8.9-7.2-11.9-3.8"/>
</svg>
