<svg xmlns="http://www.w3.org/2000/svg" viewBox="0 0 1290 1290">
    <path d="M435.5 54.8c-16.4 2.1-18.3 2.7-29 8.7-3.3 1.9-7.4 4.1-9.2 5-1.7.8-5.3 4-8 7.1-2.6 3.1-6.9 8.1-9.5 11-2.7 3-4.8 6.1-4.8 7 0 .9-.8 2.8-1.9 4.2-3.2 4.6-7.8 20.1-8.4 28.5-.9 12.9 1.7 24.8 9.1 40.7 3 6.6 12.7 19.5 26.7 35.5 3 3.4 7.5 10.2 7.5 11.3 0 .4 1.8 3.3 4 6.6 2.2 3.2 4 6.4 4 7.1 0 .7 2 5.9 4.4 11.6 5 11.7 6.3 19 7.2 40.9.8 18.4-1.5 44-4.5 49.7-1.1 2.3-2.1 4.8-2.1 5.5 0 .7-.7 2.6-1.6 4.3-.9 1.6-2.4 5.7-3.4 9-1.5 5.1-6.8 14.8-9.1 16.5-.3.3-2 3.3-3.7 6.6-1.7 3.4-5.9 9.8-9.4 14.4-3.5 4.5-7 9.2-7.8 10.3-.8 1.2-3 3.7-4.9 5.6-3.8 3.9-10.8 17.1-11.7 22.2-.3 1.9-1.5 5.6-2.7 8.4-2.8 6.7-3.1 24-.5 30 1 2.2 2.5 6.9 3.3 10.4 2 7.9 8 19.5 11.1 21.6 1.3.9 3.6 3.5 5.2 5.8 1.5 2.3 3.7 5 5 6 1.2 1 2.2 2.4 2.2 3 0 .7 2.5 3.8 5.5 7s5.5 6.3 5.5 6.8c0 1 5.3 9.3 9 14.1 1.1 1.4 2 3.3 2 4.2 0 2.1 5.7 16.3 8.1 20.2 3.5 5.7 5.4 32.7 5.3 74.9-.2 116-.5 124.3-4.4 129.1-2.3 2.7-11.8 7.4-16.1 8-2.4.3-6.4.1-8.9-.6-6.6-1.8-16.7-8.8-19.5-13.5-1.3-2.2-5.8-7.2-10-11-6.3-5.8-24.6-24.1-47.7-47.7-2.7-2.7-4.8-5.3-4.8-5.8s-2-3.2-4.5-6-4.8-6.3-5.1-7.8c-.4-1.5-1.6-4.1-2.8-5.7-4.3-5.9-6.9-11.1-9.8-19.5-4.7-13.7-5.8-18.1-5.8-23.6 0-2.8-.7-7.1-1.6-9.5-1-2.8-1.9-9.6-2.4-18.4-.6-12.5-1-14.8-3.7-21-1.7-3.9-3.4-8.7-3.7-10.8-.4-2.1-1.3-4-2.1-4.3-.8-.3-2.3-2-3.3-3.7-2.9-4.8-13.2-16-16.1-17.6-1.4-.7-3.7-2.4-5.1-3.6-3.2-2.9-12.2-7.1-18.2-8.4-2.6-.6-6.7-2.1-9-3.3-3.8-2.1-5.7-2.3-17.8-2.3-12 0-14 .2-17.8 2.2-2.3 1.3-7.3 2.9-11.1 3.7-6.3 1.3-14 5.1-16.6 8.2-.6.6-2.5 2-4.3 3.1-3.2 2-9.1 8.4-16.7 18.2-2.2 2.8-5.9 9.7-8.2 15.4l-4.2 10.2v15.1c-.1 8.3.3 17.4.9 20.1 1.5 8.3 17.3 34.6 22.9 38.1 1.4.9 5.3 3.7 8.6 6.3 7.3 5.6 7.7 5.8 19.5 10.2 7.2 2.7 11.8 3.7 19 4.2 28.6 2 46.2 5 55.4 9.4 3.3 1.6 7.5 3.3 9.1 3.7 1.7.3 4.6 1.6 6.5 2.9 14.3 9.1 24.2 16.1 27.3 19.3 1.9 2 7.5 7.3 12.2 11.7 4.8 4.4 10.3 9.8 12.3 11.9 4.8 5.1 22 22.3 25.7 25.9 1.7 1.5 3.8 3.5 4.7 4.5 1 .9 3.7 3.6 6 6 4.5 4.6 10.9 13.3 12.2 16.7 1.1 2.9.8 17.3-.4 21.1-1.6 4.8-10.9 11.6-17.5 12.9-2.2.4-19.1.9-37.5 1-28.8.2-34.8 0-43-1.5-5.2-1-13.1-2.1-17.5-2.5-9.8-.8-12.8-1.6-23-6.6-4.3-2.1-8.9-3.9-10.2-3.9-1.2 0-3.7-1.3-5.5-2.9-1.8-1.6-5.5-4.1-8.3-5.6-2.7-1.5-7-4.8-9.4-7.2-2.4-2.4-5.8-5.1-7.5-6-1.7-.8-5.6-3.9-8.8-6.7-7.8-7.1-10.3-8.8-18.5-12.9-14.5-7.4-16.6-7.9-31.9-8.4-8.1-.3-16-.1-18.5.5-6.8 1.6-18.2 6.1-20.4 8.1-1.1 1-3.3 2.2-5 2.5-1.6.4-4.8 2.3-7 4.1-7.3 5.9-19.5 19.1-19.5 21 0 .5-1.2 2.4-2.6 4.3-1.5 1.9-3.2 5.3-3.9 7.7-.8 2.4-2.2 5.8-3.2 7.6-1.6 3-1.8 5.9-1.8 21.9 0 18.2.1 18.7 3 26 1.6 4.1 4.2 9.5 5.7 11.9 1.6 2.5 2.8 5 2.8 5.6 0 1.4 7.3 8.8 15.6 16.1 3.3 2.8 10 7.1 14.9 9.4 8 3.9 10.3 4.5 21 5.6 14.9 1.6 24.8 1.7 31.7.3 15-3 19.5-4.2 21.3-5.9 1.1-1.1 3.6-2.6 5.5-3.4 1.9-.8 6.1-3.9 9.3-7 3.2-3 6.2-5.8 6.8-6.3.5-.4 2.1-2.3 3.5-4 1.4-1.8 3-3.3 3.6-3.3.9 0 9.8-5.4 14.8-9.1 5.4-3.9 12.8-7.7 19.5-9.9 3.9-1.2 7.7-2.9 8.5-3.6 2.4-2.1 12.7-4.6 22-5.4 4.7-.4 11.7-1.3 15.7-1.9 5.4-.9 10-1 18.5-.2 27.4 2.6 28.2 2.8 35.9 6.4 4.1 2 9.2 4.1 11.4 4.8 2.2.6 5.6 2 7.5 3 1.9 1.1 4.2 1.9 5.1 1.9.8 0 3.8 1.7 6.7 3.8 2.8 2 7.4 5 10.3 6.7 2.8 1.6 8.8 5.9 13.3 9.5 15.5 12.4 30.2 22 33.8 22 .9 0 4.3.7 7.5 1.5 7.7 2 34.7 2.4 42.3.6 7.4-1.8 16.3-5.6 21.7-9.5 2.5-1.7 5.5-3.8 6.8-4.6 1.3-.9 4-3.6 6.2-6.2 2.1-2.5 6.3-6.3 9.3-8.4 3-2 6.8-4.8 8.3-6.1 1.6-1.2 3.4-2.3 4-2.3.7 0 2.8-1.3 4.7-2.9 3.8-3.1 14.8-8.5 19.6-9.7 1.6-.3 4.3-1.5 6-2.5 4.7-2.8 15.2-5.9 21.4-6.4 3-.2 9.3-.8 14-1.3 9.9-1.2 119-1.4 146-.3 17.2.7 18.9.9 23.6 3.4 5.1 2.6 6 3.9 8.2 11.7 2.2 7.6 2.3 11.2.6 18.2-1.7 6.8-2.1 7.5-9.7 15-4.3 4.3-8.2 7.8-8.6 7.8-.4 0-2 1.8-3.7 4-1.6 2.2-3.5 3.8-4.2 3.5-.7-.2-2.5 1.3-4 3.5s-6.5 7.7-11.1 12.3c-15 14.6-17.5 17.2-23.3 23.5-3.2 3.3-8.2 7.7-11.2 9.6-3 1.9-5.9 4.4-6.5 5.4-.6 1.1-2.2 2.3-3.7 2.6-1.4.4-5.3 2.9-8.5 5.6-3.9 3.3-6.9 5-8.7 5-1.5 0-5.4 1.3-8.7 2.9-8.1 4-17.9 6.8-28.3 8.1-4.8.6-10.7 1.8-13.2 2.5-2.5.8-11.8 2.1-20.7 3-17.1 1.6-20 2.3-24.8 5.9-1.6 1.3-4.6 3.1-6.5 4.1-10.4 5.4-24.5 20.1-28.6 30-5.8 13.7-8.5 23.8-9 34-.6 9.5-.4 10.5 2.9 20.5 5.2 15.5 7.1 19.4 13.7 27.9 8.2 10.5 12.5 14.5 19.5 18.2 20.5 10.8 24.4 11.9 43.2 11.9 17.8 0 21.8-.9 35.1-7.6 11.7-5.9 20.7-12.3 24-16.9 1.2-1.7 4.2-5.7 6.7-9 5.4-7.3 9.5-14.7 9.5-17.5 0-1.1.9-4.3 2.1-7.2 1.7-4.3 2.3-8.8 3-23.8.8-18.2 1.7-24.9 3.7-27.3.5-.7 1.5-3.7 2.1-6.7.7-3 2.3-7.8 3.6-10.7 1.4-2.8 2.5-6 2.5-6.9 0-2.6 12.5-23 17.9-29.2 7.8-9 32.8-35.7 35.6-38 1.1-.9 6.8-6.4 12.6-12.2 33.6-33.4 37.4-35.3 54.4-26.5 4.4 2.3 4.8 3.4 7.9 17.5 1.3 6.1 1.6 13.8 1.6 42.1 0 19.3-.5 37-1 40-.6 3-1.4 10-1.9 15.6-.7 7.7-1.4 10.9-3 13.1-1.1 1.6-3.4 7.3-5.1 12.8-1.8 5.4-4.6 12.1-6.4 14.9-1.7 2.7-3.7 6.2-4.3 7.7-.7 1.5-2.7 4.4-4.6 6.5-1.9 2.1-4.2 5.3-5.3 7-1 1.8-2.1 3.3-2.4 3.3-.3 0-2.4 1.7-4.7 3.8-4.7 4.1-8.5 9-10.7 13.8-.9 1.7-3.3 5.9-5.6 9.3-5 7.5-5.9 12.2-6.2 30.6-.3 17.3.8 29.2 3.1 32.5.9 1.4 2.3 4.1 3.1 6 .8 1.9 2.2 4.6 3.2 6 6.4 8.6 11.1 13.8 13.5 15 1.5.8 3.9 2.7 5.2 4.3 1.3 1.6 4.8 3.9 7.8 5.3 3 1.3 6.7 3.4 8.3 4.7 3.9 3.4 7.1 4.3 19.9 6.2 12.3 1.8 18 1.6 33.6-1.5 10.5-2 21.2-7.4 32.1-16.3 10-8.1 11.9-10.2 14.4-15.5 1.2-2.6 3.1-5.8 4.1-7.1 1-1.3 2.4-4.2 3-6.5.6-2.2 2-6.1 3.2-8.6 2-4 2.2-6 2.1-19 0-8-.6-16.3-1.1-18.5-1.9-6.7-5.1-14.6-7.6-18.4-1.3-2-2.8-4.7-3.2-6-.4-1.3-4.9-7.2-10-13-8.6-9.8-12.5-14.7-18.9-24.1-3.5-5-10.6-18-10.6-19.2 0-.6-.9-2.9-1.9-5.2-1-2.3-2.4-6.1-3.1-8.6-.7-2.5-1.9-6.2-2.7-8.4-1.6-4.4-4.3-27.8-4.3-37.5 0-14.5 5.1-41.9 10-53.3 3.9-9.1 8.8-18.6 11-21.5 1-1.3 2.1-3.8 2.4-5.6.3-1.8 2.3-5.1 4.3-7.3 6.4-6.8 13.3-15.7 13.3-17 0-.8 2-3.5 4.5-6.1 2.6-2.7 7.2-9.3 10.5-14.8 5.2-9 6-11 7.5-20 1.4-8.3 1.5-12.2.6-23.1-1-14.1-1.6-15.8-10.6-29.8-4.3-6.8-18.5-24.6-19.9-25.2-2.1-.8-13.3-16.5-17-23.9-4.5-9-9.6-21.3-9.6-23.1 0-.8-1.2-4.3-2.6-7.7-2.4-5.7-2.7-7.9-3.5-26.7-1.2-28.8-1.1-150.8.2-159.4 1.9-13.8 6.9-18.4 20.8-19.3 6.9-.5 8.5-.3 12.7 1.8 3.9 1.8 17.8 13.9 24 20.9 7.5 8.4 18 19.4 22.9 23.9 13.1 12.3 27.2 26.9 30.5 31.4 1.9 2.7 4.7 6.3 6.3 8.2 1.5 1.8 2.7 3.9 2.7 4.8 0 .8.7 2 1.5 2.7 2 1.7 9.1 16 10 20.2.4 1.8 1.8 5.3 3.2 7.7 2 3.4 2.7 6.7 3.5 14.5.5 5.5 1.1 11.2 1.3 12.6.5 3.1 2.3 17.7 3.5 28.8.5 4.6 1.7 9.8 2.5 11.5.9 1.8 2.3 5.2 3.2 7.7.8 2.5 2.1 5.2 2.8 6 .7.8 2 3 2.9 4.7 2 4 15.8 17.7 20.6 20.4 1.9 1.1 5.3 3.1 7.5 4.4 4.5 2.7 5.4 3.2 14.2 6.9 12.8 5.5 37.9 5.6 48.3.2 2.5-1.3 6.3-2.9 8.5-3.6 5.9-1.9 16-7.9 17.6-10.5.8-1.3 3.2-3.8 5.4-5.6 7.5-6.2 11.3-11.4 16.5-22.2 4.6-9.5 5.4-12.1 6.6-21.5 1.2-9.8 1.1-11.7-.7-23-2.4-14.2-5.8-23-11.7-29.4-2.2-2.4-4.6-5.7-5.5-7.4-2.4-4.7-14.5-15.2-21.7-18.9-3.6-1.8-8.8-3.6-11.5-4-2.8-.4-8.1-1.8-12-3-4.9-1.6-10.4-2.5-18.2-2.8-6.1-.3-13.6-1.2-16.5-2.1-2.9-.8-9.7-2.2-15-3.1-7.4-1.2-11.5-2.5-17-5.4-4-2.2-8.4-4.2-9.8-4.6-1.4-.4-4.4-2.1-6.8-3.6-2.4-1.6-6.1-3.8-8.2-4.9-2.1-1.1-4.8-3.3-6-5-1.2-1.7-3.6-3.8-5.3-4.6-3.7-1.9-17.4-13.9-22.6-19.9-2-2.2-5.1-5.4-6.9-7-1.8-1.7-5.9-5.7-9-8.9-3.1-3.3-11.5-11.6-18.5-18.5-7.1-6.9-13.8-14.1-15-16.1-1.2-1.9-2.9-4.2-3.9-5.2-1.4-1.4-1.8-3.4-1.8-8.7 0-8.3 1.8-13.8 6.5-19.5 2.9-3.6 4.6-4.6 10.2-6.2 6.2-1.7 10.2-1.8 46.8-1.6 28.6.2 42.1.7 47.5 1.7 4.1.7 10.4 1.9 14 2.5 3.6.6 8.9 2.2 11.9 3.6 2.9 1.3 5.9 2.4 6.6 2.4 1.9 0 13 5.4 20.3 9.9 7.8 4.8 16.3 11.6 25.5 20.4 3.9 3.7 8.3 7 9.7 7.4 1.4.3 3.1 1.3 3.8 2.2 1.2 1.5 4.4 3.4 10.9 6.6 2.9 1.3 8.2 2.4 20.8 4.2 13.3 2 36-.7 41.8-4.8 1.5-1.1 4.6-2.9 7-4 6.4-3 7.8-3.9 14.6-9.9 3.5-3 7.1-7.1 8.2-9.1 1-2.1 2.2-3.9 2.7-4.1 1.6-.6 7.1-9.6 10-16.4 3.4-8 5.8-25.1 4.7-33.6-1.7-13.1-7.5-29.8-12.1-35-.9-.9-3-3.9-4.7-6.6-4.5-7-16.9-17.8-24.7-21.5-11.4-5.3-12.3-5.6-20.9-6.7-22-2.7-46.6.9-52.1 7.5-.7.8-1.8 1.5-2.4 1.5-3.1 0-12.5 6.5-21.3 14.7-5.4 5.1-11.9 10.5-14.4 12-6.3 3.9-7 4.3-12.5 8.5-2.8 2.1-7.4 4.3-11.1 5.3-3.5 1-7.3 2.5-8.6 3.5-3.7 2.9-27.4 7.1-43.4 7.7-21.1.9-44.5-2.8-60.3-9.3-10.4-4.2-29.8-14-32.5-16.4-1.1-.9-4-2.8-6.5-4.2-2.5-1.4-5.6-3.9-7.1-5.4-1.4-1.6-4.6-4.5-7.2-6.4-2.7-1.9-7.1-5.4-10-7.6-9.2-7.4-16-10.4-27.1-12.1-5.5-.8-10.8-1.9-11.7-2.4-2.9-1.5-8.7-1-21.9 1.7-14.5 3-22.4 6.8-30.8 14.8-2.9 2.8-6.6 5.6-8.3 6.3-1.6.7-3.2 1.9-3.5 2.8-.9 2.2-14.3 12.9-19.6 15.6-2.3 1.2-5.5 3.1-6.9 4.3-1.4 1.2-5.2 3.5-8.5 5-3.2 1.6-6.8 3.4-7.9 3.9-1.1.6-3.1 1.6-4.5 2.3-1.4.7-5 1.7-8 2.4l-10 2c-2.5.5-7.2 1.4-10.5 2-3.8.6-35.8 1-88.5.9h-82.5l-5.5-2.2c-4.7-2-6.1-3.2-9.7-8.7-5.7-8.5-5.9-14.1-1-23.4 4.3-8 1.9-5.5 39.2-42.9 22.7-22.8 35-34.3 42-39.5 11.7-8.6 20.2-13.7 24.1-14.6 1.6-.4 5.8-2.1 9.4-3.8 14.7-7 17.4-7.6 39-8.7 17.8-1 33.5-3.8 39.7-7.1 2.1-1.1 4.3-2 5-2 .6 0 2.4-1.1 4-2.3 1.5-1.3 5.2-3.7 8.1-5.2 2.9-1.6 6.7-4.5 8.4-6.4 1.6-2 4.2-5 5.7-6.6 3.6-3.9 12-18.6 14.4-25 3.2-8.9 3.7-11.8 3.7-24.2 0-9.9-.4-13.3-2-17.5-1.1-2.9-2-6-2-6.8 0-.8-.9-3.2-2-5.3-1.1-2.1-2.8-5.7-3.7-8-1.9-4.8-6.5-11.1-10.8-14.7-1.6-1.4-4.8-4.5-7-6.9-3.9-4.2-13.3-11.1-15.2-11.1-.5 0-5.5-2-11-4.5l-10.1-4.6h-13.9c-15-.1-12.1-.8-36.4 8.5-3.1 1.1-7 3.6-8.8 5.4-1.9 1.8-5 4.1-7 5.1-6.6 3.4-18.9 18.6-20.5 25.5-.4 1.5-1.6 4-2.6 5.5-1.1 1.4-2.5 5.2-3.1 8.4-.5 3.2-1.7 7.7-2.5 10-1 2.7-1.8 11-2.4 22.7-.9 17.6-1.6 22.1-4.7 28-.7 1.4-1.3 3.2-1.3 4 0 .9-.7 2.6-1.6 3.8-.8 1.2-2.2 4.4-2.9 7-.8 2.7-2.6 6.5-3.9 8.4-1.3 1.9-2.9 5.2-3.6 7.2-.6 2-1.5 3.6-1.9 3.6-.5 0-1.7 2.1-2.8 4.7-2.1 4.9-15 19.5-26.1 29.6-3.1 2.8-16.5 16-29.7 29.3-25.4 25.6-28.7 28.2-38 29.1-7.3.8-9.9-.1-15.1-4.9-6.3-5.8-10.9-15.7-9.9-21.2.4-2.3.6-5.9.4-8.1-.2-2.2-.3-18.9-.3-37 0-28.5.2-34.1 1.8-41 1-4.4 2.2-10.3 2.6-13.1.4-2.8 1.5-6.4 2.3-8 .8-1.6 2-4.9 2.7-7.3.6-2.5 2.5-7.2 4.1-10.6 1.6-3.4 2.9-6.6 2.9-7 0-.5.9-1.8 1.9-2.9 1-1.2 2.7-3.7 3.8-5.6 1-1.9 3.8-5.5 6.1-8 2.4-2.5 5-5.7 5.8-7.3.8-1.5 1.9-2.7 2.4-2.7s3.5-3.6 6.6-8c3.1-4.4 6.8-9.3 8.3-10.8 1.6-1.5 3.3-4.9 4-7.7.7-2.8 2.1-5.9 3.2-7.1 2.5-2.7 5.3-22.2 4.6-31.4-1.2-13.6-2.8-21.5-5.2-25-1.3-1.9-2.7-4.9-3.1-6.5-.4-1.7-2.6-5-5-7.3-2.3-2.4-5.5-6.3-7-8.5-2.8-4.1-7.2-8.6-8.6-8.7-.4 0-2-1.2-3.5-2.6-1.5-1.4-5.4-4-8.6-5.8-3.2-1.7-7.4-3.9-9.3-4.9-3.2-1.8-9.7-3.2-21.4-4.6-3-.3-10 0-15.5.7zM696 464c15.5 1.8 35.4 5.7 39.5 7.7 2.2 1.1 5.8 2.6 8 3.3 2.2.7 5.9 2.5 8.2 4 2.2 1.6 5.2 3.1 6.5 3.5 2.8.9 8.1 4.7 12.7 9.2 1.9 1.8 3.9 3.3 4.6 3.3 1.4 0 6.5 5.2 6.5 6.8 0 .6 2 2.5 4.5 4.2 2.7 1.8 5.6 5 7.1 7.8 3.8 7 6.8 11.8 8.7 14 .9 1 1.7 2.5 1.7 3.2 0 .8.8 2.3 1.9 3.4 1 1.2 2.5 4.1 3.3 6.6 1.5 4.4 3 8.1 8.9 22.5 1.8 4.3 3.3 10.3 3.9 15.5.5 4.7 1.5 13.7 2.1 20 .8 7.2 1.3 26 1.2 50.5 0 51.9-2 75.1-7.3 86.9-1.7 3.6-3 7.2-3 7.9 0 .8-.8 2.5-1.9 3.8-1 1.3-2.4 4.1-3 6.2-.7 2.1-2.4 5-3.7 6.4-1.3 1.4-2.4 3-2.4 3.5s-1.8 3.1-4.1 5.7c-2.2 2.6-5.3 6.9-6.7 9.6-3.6 6.6-21 21.3-33.7 28.5-3.3 1.8-7.3 4.4-9 5.6-1.6 1.2-5.5 2.9-8.5 3.7-3 .8-9.4 3.1-14.1 5.1-5.7 2.4-11.6 4-17 4.7-4.6.6-10.9 1.5-13.9 2-14.5 2.5-27.9 3.1-63 2.5-20.1-.4-39.6-1.1-43.5-1.5-25.6-3-33.9-4.8-44-9.6-3.8-1.8-8.7-3.8-10.7-4.4-2-.7-4.2-1.9-4.9-2.7-.7-.9-3-2.5-5.2-3.7-8.2-4.5-9.3-5.3-11.7-7.7-1.4-1.4-4.5-4.2-6.8-6.3-2.4-2.1-5.5-5.5-6.8-7.5-1.4-2-5.5-7-9.2-11.1-3.7-4.1-7.5-9.2-8.5-11.5-.9-2.3-2.4-5.2-3.2-6.6-4-7-8.7-18-9.4-22.1-.4-2.5-1.9-7.5-3.3-11-2.7-6.6-3.7-11.8-6.3-30.2-1.8-13.7-1.6-102.9.4-108.7.6-1.9 1.6-7.6 2.1-12.5.7-6.1 1.7-9.9 3-11.7 1.1-1.4 2.4-4.8 3-7.5.6-2.6 2.2-7.1 3.5-9.8 1.3-2.8 3-6.6 3.9-8.5 2.5-5.3 8.3-14.8 11.2-18.4 8.1-9.7 19.3-21 22.6-22.7 2-1 4.2-2.8 4.9-4 .6-1.1 3.4-3.2 6.2-4.5 2.9-1.3 5.9-2.8 6.7-3.2 7.8-4.4 12-6.4 18-8.7 2.5-.9 6.5-2.5 9-3.6 4.9-1.9 14.1-4.1 26-6 4.6-.7 26-1.5 55-1.9 26.1-.3 48.4-.7 49.5-.8 1.1-.1 5.8.3 10.5.8z"/>
</svg>
