<svg xmlns="http://www.w3.org/2000/svg" viewBox="0 0 1240 1240">
    <path d="M622.5 21.6c-3.8.3-19.6 1.1-35 1.9-15.4.8-29.6 1.9-31.5 2.4-15.3 4.2-23.8 6.1-31.5 7.1-10.6 1.3-28 5.2-38.3 8.6-4 1.3-7.9 2.4-8.8 2.4-1.5 0-16.3 4.9-33.4 11.1-4.7 1.7-10 3.5-11.9 4.1-3.7 1.1-18.7 8.2-20.5 9.7-.7.6-3.2 1.5-5.7 2-2.5.6-11.1 4.5-19 8.7-7.9 4.2-17.8 9.4-21.9 11.6-4.1 2.1-11.1 6.1-15.5 8.8-4.4 2.7-9.7 5.8-11.8 7-2.1 1.2-6.3 3.8-9.3 5.8-3.1 2-6.9 4.5-8.6 5.4-1.7.9-4 2.5-5.2 3.5-1.1 1-5.2 4-9.1 6.5-3.8 2.6-9.5 6.8-12.5 9.3-3 2.5-8.6 6.9-12.5 9.9-3.8 2.9-8.1 6.6-9.5 8.1-1.4 1.5-5.2 4.6-8.6 7-3.3 2.4-12 10.5-19.2 18.1-14.6 15.1-15.8 17.6-10.5 21.1 2.6 1.7 21.6 1.8 406.3 1.8h403.5l3.5-2c5.5-3.3 5.1-5.9-2.3-13.3-11.6-11.9-24.3-23.7-31.8-29.7-4.1-3.3-10.9-8.9-15.1-12.5-13.1-11.1-18-14.6-36.8-27-2.1-1.4-5.9-4-8.5-5.8-2.6-1.8-7-4.4-9.9-5.9-2.8-1.4-6.4-3.6-8.1-4.8-2.8-2.1-6.5-4.3-18.3-10.5-2.6-1.4-8.1-4.4-12.3-6.8-4.2-2.3-8.3-4.2-9.2-4.2-.9 0-4.5-2-8-4.4-3.6-2.5-8.5-5.1-10.9-6-6.8-2.4-17.2-6.8-18.4-7.7-1.2-.9-3.8-1.9-23.9-8.8-16.9-5.8-29.8-9.8-38.5-12-4.1-1-11.5-3-16.5-4.5-4.9-1.4-13.9-3.1-20-3.7-7.1-.7-13-2-16.7-3.5-3.1-1.3-9.6-3.1-14.4-3.9-15.5-2.7-84.4-5.9-103.9-4.9zM629.8 262.6c-.3.2-101.7.5-225.4.6-252.5.1-228.9-.6-237.1 7.6-9.5 9.6-10.9 20.5-3.1 23.1 2.3.7 56.1 1 176.3.9 95.2-.1 174.5.2 176.3.6 1.7.4 3.2 1.4 3.2 2.1 0 1.6-6 5.5-8.6 5.5-1.1 0-3.8.9-6.1 2-5.2 2.3-5.8 5.7-1.6 8.9l2.6 2.1 133.9-.2 134-.3 2.4-2.8c4.7-5.4 3.1-7.1-8.7-9.3-3.8-.7-9.9-4.1-9.9-5.4 0-.5.9-1.4 2-2 1.3-.7 57.6-1.1 178.9-1.3 200.1-.2 180.5.7 180.3-8.5-.2-6.9-2.5-12.1-7.2-16-8.4-7 10.4-6.5-234.5-6.8-121.5-.1-226.9-.5-234.2-.8-7.2-.2-13.3-.3-13.5 0zm33.8 19.9c2.7.8 5.8 1.5 6.9 1.5 1.1.1 4.3 1.1 7 2.4l5 2.4-3 1.3c-2.3.9-12.7 1.3-42 1.3-21.4 0-40.2-.4-41.7-.7-1.6-.4-2.8-1.4-2.8-2.2 0-2.7 4.5-4.4 16.5-5.9 6.6-.9 13.4-1.8 15-2 6.4-.9 34.2.4 39.1 1.9z"/>
    <path d="M799.1 312.1c-3.9.8-7.6 4.1-6.9 6.1.3.7 5.1 4.4 10.7 8.2 10.1 6.9 11.7 9 8.6 11.6-1.1.9-32.5 1.1-142.7.9-174.2-.5-172.8-.5-186.5.6-9.8.7-11.5.6-13.8-.9-3.4-2.3-3-5.6 1-7.5 1.7-.7 3.8-2 4.7-2.8.9-.8 3.1-2.3 4.9-3.2 4.2-2.3 7.4-6.4 6.6-8.6-1.7-4.2.4-4.1-172.2-4.1-181.8.1-168.5-.4-175.9 6.3-2.1 1.9-4 4.9-4.6 7.2-.6 2.2-1.5 4.3-2 4.6-1.3.8-1.3 5.1 0 7.4 2.3 4.4 4.9 4.6 55.5 4.5 26.4-.1 92.8-.4 147.5-.8 68.9-.5 100.4-.4 102.3.3 4.3 1.6 4.3 3.7.3 8.1-4 4.4-4.7 8.8-1.9 11.1 1.9 1.6 5.9 1.7 156.8 1.6 273.7-.2 253.5 0 255-2.1 1.7-2.3.7-5.4-3.5-10.4-3.9-4.7-3.8-6 .5-7.8 3.1-1.3 17.6-1.4 111.3-.8 191.9 1.1 188.4 1.2 191.5-.9 2.2-1.5 2.7-2.5 2.7-6.1 0-8.4-5.6-16.9-13.3-20.2-4-1.8-10.3-1.9-143.7-2.1-76.7-.1-150.7-.3-164.5-.5-13.7-.2-26.5-.1-28.4.3z"/>
    <path d="M127 359.6c-6.5 2.4-9.2 4.1-12.2 7.8-4.8 5.6-6.8 9.8-6.8 13.9 0 8.9 5.5 10.1 45.2 9.3 15.6-.3 74-.8 129.8-1.1 82.3-.5 102-.3 104 .7 1.8 1 2.6 2.3 2.8 4.9.4 4.7-3.9 12.4-7.6 13.5-1.5.4-9.4.9-17.7 1-32.7.6-172.3.1-209.5-.7-49.6-1-46.2-1.1-50.7.5-2.9 1-4.9 2.9-8.6 8.2-4.3 6.2-4.7 7.4-4.5 11.9.3 4.4.7 5.2 3.8 7.3 3.2 2.1 4.2 2.3 13.5 1.8 5.5-.3 62.9-.8 127.6-1.2l117.5-.7 2.2 2.3c2.6 2.8 2.9 7.5.7 12.6-2.9 7 2.1 6.7-103 6-139.4-1-160.1-.8-165 1.4-5.9 2.5-7.5 5-8.7 12.7-.9 5.7-.8 7.4.5 10.6 3.1 7.2 2 7.1 63.2 6.1 29.7-.5 84.5-.9 121.7-.9 67.6 0 67.7 0 70.5 2.1 2.4 1.9 2.8 2.8 2.6 6.9-.1 3.7-.8 5.4-2.7 7.4l-2.6 2.5-48.2.1c-26.6.1-81.9-.3-122.9-.8-86.7-1-84.9-1.2-88.1 6.1-2.5 5.5-3.3 11.6-2.4 16.7.6 3.1 1.4 4 5.4 5.8 4.6 2.2 5.6 2.2 50.7 2.1 25.3 0 79.1-.4 119.5-.8 70-.7 73.7-.7 77 1.1 3.5 1.8 3.5 1.9 3.2 7.8-.3 8.6-1.1 9.1-17.4 9.8-7.3.3-42.5.3-78.3-.1-35.7-.4-85.1-.7-109.7-.7-43.7 0-44.7 0-47.5 2.1-3.7 2.7-5.3 6.3-6 12.9-.8 7.3.9 11 6.1 13.8 4.7 2.5-6.7 2.4 142.6 1 47.6-.4 89.8-.5 93.8-.2 6.2.5 7.8 1 10 3.2 3.7 3.8 3.6 10.1-.2 13.4-2.6 2.2-3.5 2.3-18.4 2.4-47.4.3-71.8.2-142.2-.5-86-.8-85.6-.8-89.6 5.1-1.1 1.7-2.4 5.3-2.8 7.9-.8 6.1 1.9 11.9 7.1 15.4l3.8 2.5 44.5-.5c24.5-.2 78.7-.5 120.5-.5 84.6 0 80.4-.3 83.9 6.8 1.8 3.8 1.8 3.9 0 7.4-1.1 1.9-2.9 3.9-4.2 4.4-1.8.7-96.9.9-222.9.5l-22.2-.1-3.5 3.4c-3.1 3-3.6 4.1-3.6 8.3 0 9.6 4.1 15.4 12.7 17.7 5.6 1.5 60.5 1.6 96 .1 29.5-1.3 152.5-.9 155.4.4 2.4 1 3.9 5.1 3.9 10.1 0 3.6-.5 4.8-2.7 6.5l-2.8 2.2-98.5-.7c-139-1.1-144-1-149.5 1.4-5.1 2.2-6.1 4.6-5.2 12.1.9 7.3 3.1 11.6 7.9 15l4.3 3.2 35.5-.8c19.5-.4 78.3-.8 130.7-.9 108.2-.3 97.4-1.2 99.5 8.9 1.2 5.3 1.1 5.8-1 7.9l-2.3 2.2h-94.2c-51.8 0-108.6-.4-126.2-.9-31.2-.9-32.2-.8-36.7 1.2-2.5 1.1-5.2 3-5.8 4.2-1.5 2.9-.4 9.6 2.4 14 1.3 1.9 3.1 4.8 4 6.3 3.6 5.9 4.5 6 54.6 5.3 25-.4 82.6-.9 128-1.1 45.4-.2 87.1-.6 92.6-.9l10.1-.5 1.6 3.7c.9 2 2.6 5.4 3.9 7.4 2.7 4.4 1.9 6.7-2.8 8-3.5 1-154.1 1-187.9-.1-13.2-.4-37.3-.6-53.6-.5-28.6.1-29.8.2-33.2 2.3-2.2 1.3-3.8 3.2-4.1 4.9-1.7 7.6 7.1 21.2 15.2 23.7 3 .9 37.7.9 99.7 0 28.1-.4 83.2-.8 122.5-.9 76.3-.1 77-.2 77-4.9 0-1.7-1.6-3.4-5.9-6.4-8-5.7-9.1-10.7-2.8-13.9 2.7-1.4 7-1.5 41.6-.4 28.1.8 84.3 1 206.1.4 224-1 208-1.3 208 5 0 4.1-2.1 7-7.5 10.2-3.9 2.2-4.5 3-4.5 5.9 0 2.5.5 3.4 2.3 3.9 1.2.3 54.6.6 118.7.7 64.1 0 127.8.4 141.5.8 33.2 1 44.3-.5 46.1-6.2.3-1.2 2-5 3.6-8.5 3.8-7.9 3.2-11.8-2.2-14.4-4.2-2 .7-2-159.7-1.2l-116.1.6-1.7-2.6c-2.2-3.3-1-6.6 4.4-12.6l3.7-4.1 105.4.6c58 .3 120.9.7 139.8.8l34.4.2 3.3-3.7c6-6.5 8.6-20.7 4.5-24.8-1.1-1.1-3.1-2.2-4.5-2.6-1.4-.3-16.4-.1-33.3.5-38.8 1.4-214.6 1.4-221.3 0-5.9-1.3-6.7-3.1-4.4-9.8 3.1-9.4-7-8.6 109.5-8.6 56.4 0 114.7.4 129.5.9l27 .9 2.8-2.3c3.7-3 7-8.2 9.1-14.8 2-6.1 1.1-10-2.9-12.6-4.2-2.8-20.2-3.7-45.4-2.7-18.7.8-188 1.8-203.3 1.2-5-.1-6.8-2.3-6.8-7.7 0-5.8 2.3-10.2 5.8-11.1 3.9-1 157.4-1 206.2.1 38.8.9 41.7.8 45-.9 6.1-3 9.7-7.7 10.5-13.3.9-6.6-1.2-11.1-6.6-14.1l-4.1-2.3-36.6.7c-52.2 1-198.7 1.3-203.4.5-2.1-.4-4.1-1-4.4-1.3-1.5-1.4-2-7.6-1-11.6.9-3.7 1.6-4.6 4.1-5.4 4.2-1.4 177.4-1.5 210.5-.1 31.4 1.3 36.9.6 41.9-5.2 1.7-1.8 3.3-5 3.7-7.1.9-4.6-1-12-3.8-15-4.2-4.5-6.6-4.6-49.7-3.7-22.3.5-76.1.8-119.4.7-87.8-.2-83 .2-84.3-6.9-.9-4.7.4-8.1 3.7-10.7 2.6-1.9 4.6-1.9 94.4-1.8 50.4.1 92.2.4 92.8.6 3.5 1.1 47.8 1.5 52.7.4 11-2.3 13.3-4.8 13.1-14.1-.1-7.3-2.1-12.1-5.7-14.5-2.7-1.7-5.5-1.8-47.9-1.3-24.7.3-79.6.5-122 .5-87.1 0-81.8.4-84.4-7.7-1.2-3.9-1.2-5.2-.1-7.8.7-1.7 2.3-3.5 3.4-3.8 1.7-.6 100.1-.1 218.6 1.1 22.3.2 24.9 0 28.8-1.7 5-2.3 5.7-4.2 4.9-13.3-.8-7.8-3.1-12.2-7.7-14.5-3-1.5-6-1.7-27.4-1.2-47.4 1-223 .7-225.8-.4-5.3-2.1-7.8-12.2-3.9-16.1 1.8-1.8 5-1.9 85.2-2 45.9-.1 94.4.3 107.9.9 52 2.1 56 2 60.4-1.8 1-1 2.5-3.2 3.3-5 1.2-2.9 1.2-4.1-.1-8.6-2-6.7-5.2-11.5-9.4-13.9-3.2-1.9-5.2-2-42-1.6-21.3.2-79.6.4-129.7.4-70.6 0-91.5-.3-93.2-1.2-2.7-1.6-5.7-9.4-4.9-12.7.3-1.3 2.1-3.4 4-4.5 3.3-2.1 3.9-2.1 92.7-2.1 49.2 0 105.6.5 125.5 1.1 33.1 1 36.4 1 39.3-.6 3.8-1.9 6.4-7.3 5.5-11.3-1.1-4.5-6.6-14.2-8.8-15.4-1.5-.9-39.4-1.1-140.4-.9-76.1.1-138.9.4-139.5.7-.7.2-3-1.3-5.1-3.5-3.4-3.5-4-4.8-4.3-9.3-.7-9.1-11.7-8.3 107.9-8.3 58.5 0 118.2.4 132.8.8 14.6.4 28.9.4 31.9.1 10-1.2 12.8-7.6 6.8-15.6-1.3-1.8-2.9-4.7-3.6-6.3-1.5-3.8-6.3-7.1-12.6-8.6-3.7-.8-31.1-.9-107-.4-56.1.4-120.4.8-143 .9-43.8.2-45.5.4-45.5 5 0 2.4 6.9 10.3 12.4 14.1l2.9 2.1-2.5 2.8-2.4 2.8h-226c-156.9 0-226.7-.3-228.6-1-1.5-.6-3.2-2-3.7-3.1-.9-1.7-.4-2.5 3.7-6.1 6.7-5.9 10.3-10.6 9.6-12.4-.3-.8-2.8-2.2-5.6-3.2-4.1-1.3-8.5-1.6-25.1-1.3-11.1.1-74.9 0-141.7-.4-66.8-.4-122.2-.4-123-.1zm514.5 52.6c273.3-.2 253.8-.6 257.7 5.6 1 1.5 2.7 3.9 3.9 5.4 2.8 3.4 2.9 8.6.4 10.4-1.4 1.1-6.7 1.4-21.4 1.5-41.8.3-109.6 0-153.1-.6-45.1-.7-52.7-.3-54.5 2.6-1.1 1.7 1.5 3.8 6.7 5.4 8.5 2.5 17.8 9.4 17.8 13.1 0 2-4.4 2.9-13.5 2.9-27.9-.2-94.3-.4-96-.3-10.8.7-11.9-1.7-4.1-8.9 4.1-3.7 7.4-5.7 11.2-6.8 5.5-1.6 7.8-4.5 5.4-6.9-.8-.8-30.1-1.1-113.1-1.1-110.9 0-112.1 0-113.5-2-1.8-2.4-1.4-4.1 3.2-13.9l3.7-7.7 5.1.7c2.8.5 117.2.7 254.1.6zM375 460.9c1.9-.1 5.5-.3 8-.2 2.5 0 38.7.2 80.5.4 71.4.4 76.3.5 78.9 2.2 3.5 2.3 3 3.7-2.1 6.2-5.5 2.7-6.8 3.9-10.3 9.6l-3 4.9 5.8 2.6c5.3 2.4 6.4 2.5 14.7 1.9 5-.4 52.5-.8 105.6-.9 100.1-.1 99.9-.1 99.9-3.9 0-1.5-9.5-10.4-14.2-13.4-4.7-2.9-4.9-5.7-.6-7.9 2.7-1.4 6.4-1.6 25.2-1.4 12.2.1 51.9-.1 88.3-.5l66.2-.8 3.3 2.8c1.8 1.5 4.7 5.5 6.4 8.9 2.9 5.5 3.1 6.3 1.8 8.7-.7 1.5-2.1 3-3.1 3.5s-39.7.9-86 .9-84.4.3-84.7.6c-.3.3.5 3.3 1.9 6.7 3 7.5 3.2 11.7.6 13.2-1.3.7-40.7 1-120.4 1-129.9 0-121.6.4-120.2-5.9.3-1.6 1.5-3.7 2.6-4.6 1-1 2.3-3.4 2.9-5.4 1.9-6.9 6.4-6.5-75.7-6.3-40.6.1-77.9.5-83 .8-8.9.6-9.2.6-11.7-1.9-1.4-1.4-2.6-3.7-2.6-5 0-4.5 3.3-12.2 6.4-15 2.9-2.6 3.5-2.7 9.1-2.1 3.3.4 7.6.5 9.5.3zM498.1 511c3.5 2.6 3.4 3.9-.8 13-4.6 10 4.5 9-81.5 9h-75.9l-2.4-2.5c-4.4-4.3-2.7-16.7 2.6-19.6 4-2.1 15.9-2.4 86.1-2.2l68.8.1 3.1 2.2zm438.5-.4c4.7 1.8 6.2 4.3 7.1 11.5.7 5.9-.2 9.5-2.4 10.4-1 .4-35.3.6-76.3.6-70.2-.2-74.6-.3-77-2-3.8-2.7-8.8-9.7-10-13.9-.9-3.4-.8-3.9 1.7-5.9 1.5-1.2 4.5-2.4 6.8-2.5 2.2-.2 35.9-.2 75-.1 61.8.3 71.5.5 75.1 1.9zm-153 27.7c2.2 2.6 2.5 3.8 2.1 7.1-.4 2.7-1.5 4.9-3.2 6.3l-2.6 2.3-55.2.1c-30.4.1-93.7 0-140.7 0-81.6-.1-85.6-.2-88-2-3.5-2.6-3.5-10.8-.2-14.4l2.3-2.4 141.4-.1H781l2.6 3.1zm-309.9 18.3c7.1.7 10.3 3.8 10.3 9.6 0 5.3-3.1 12.2-6 13.8-1.7.9-19.9 1.1-73.8.8l-71.5-.4-1.8-2.3c-2.5-3-2.8-18.1-.4-20.5 1.3-1.2 9.4-1.5 58.7-1.5 31.4-.1 57.3-.3 57.6-.5.5-.5 19.7.2 26.9 1zm474.5 2.3c3.4 3.8 4.2 6.8 3.4 12.6-.5 3.2-1.5 5.1-3.8 7l-3 2.6-71.5-.3-71.5-.3-3.4-3.7c-3.1-3.4-3.4-4.3-3.4-9.8 0-9.8-.3-9.7 26.5-11.3 2.2-.1 31-.1 64 0l60 .2 2.7 3zm-161.6 24.6c5 .9 7.6 4.4 7.2 10-.2 3.9-.8 5.2-3.1 6.9l-2.8 2.1-148.5-.2c-165.4-.1-152.6.4-154-6.9-.9-4.9.4-8.4 4.1-10.9 3-2 3.8-2 148.5-1.8 80 .2 146.9.5 148.6.8zm-307.2 23.4c1.4 1.3 3.2 4.8 4.1 7.7 1.4 4.7 1.4 5.8.1 8.8-1.1 2.7-2.3 3.7-5.3 4.5-5 1.4-140.1 1.5-143.7.1-3.9-1.4-6.6-6.6-6.6-12.5 0-6 1.9-9.1 6.3-10.4 1.9-.6 31.3-.9 72.9-.8l69.6.2 2.6 2.4zm468.7 0c2.5 2.6 2.9 3.7 2.9 8.6 0 6.1-1.9 10.8-4.9 12.5-1.3.6-26.2 1-73.1 1-61.5 0-71.5-.2-74-1.5-5.4-2.8-6.2-6.8-3-14.4 2-4.6 5.5-7.4 10.5-8.4 1.1-.2 32.7-.5 70.3-.6l68.3-.2 3 3zm-202.7 24.7c34.5.7 35.9.8 38.1 2.8 3.6 3.3 3.9 7.8.7 11.9-2.4 3.2-3.3 3.6-9.2 4.3-3.6.4-66.8.8-140.5.8-150.3-.1-138.7.6-141.9-7.4-2.2-5.5-2-6.7 1.2-9.9l2.8-2.8 106.4-.2c58.6-.1 122.6.1 142.4.5zm-252.6 24.3c.9.5 3.2 3.4 5 6.4 4.4 7.2 4.2 11.5-.6 13.9-3.1 1.5-9.9 1.6-77.6 1.3-83-.3-80.1-.1-83.1-7.1-2-4.8-2-11.8.1-13.4.8-.8 3.2-1.7 5.2-2.1 5.4-1.1 148.9-.1 151 1zm449.2.6c4.1 3.7 1 16.7-4.5 19.5-2.6 1.2-14.3 1.4-79.9 1.2-51.5-.1-77.3-.5-78.1-1.2-2.8-2.3-2.6-6 .5-11.3 4.6-7.9 5.6-8.9 9.7-9.7 2.1-.4 36.8-.6 77.1-.5 68.7.2 73.4.3 75.2 2zm-183.3 25.7c3.1 2.9 2.9 6.2-.7 10.7-3.3 4.1-3.2 6.5.3 7.5 1.2.3 39.2.6 84.3.6 81.6 0 82.1 0 84.8 2.1 1.6 1.3 2.6 3 2.6 4.7 0 3.8-6.3 15.5-9.1 16.9-1.8.9-21.4 1.3-78.4 1.4-41.8.1-82.3.3-90 .4-23.1.3-24.1-2.3-6.5-17.5 3.8-3.3 4.3-4.2 3.4-5.7-2.7-4.5-.7-4.5-108.1-4.4-101.4 0-106 .2-110 3.4-1.9 1.5-1.6 2.4 1.9 5.4 9 7.7 10.9 10.1 10.6 13.4-.2 2.7-.9 3.4-3.8 4.3-2.5.8-29.5 1-92.9.6l-89.3-.5-2.8-3.3c-5.5-6.6-6.6-17.6-2.1-19.8 1.8-.9 22.9-1.3 83-1.4 44.3 0 82.2-.4 84.1-.9 4.1-.9 4.3-3.3.6-6.7-4.7-4.2-4.6-10.7.3-12.7 2.1-.9 31.1-1.1 119.2-.9l116.3.3 2.3 2.1zm-59 48.3c2.3 1.6 2.4 1.8.8 3.5-.9 1-2.8 2.3-4.3 2.8-16 5.9-17.6 7-14.7 10.2 3.4 3.7 10.8 4.3 45.5 3.4 17.9-.5 64.5-.9 103.6-.9 68.6 0 71.3.1 73.3 1.9 1.2 1.1 2.1 2.6 2.1 3.4 0 2.9-3.3 8.3-8.4 13.7l-5.3 5.5-85.9-.5c-105.8-.7-211.4-.7-287.9 0-77.2.7-73.5.7-102.2 0-15.3-.4-26.6-.2-28.8.4-3.1.8-3.7.7-5.4-1.5-1.1-1.4-2.9-4.6-4.1-7.2-1.2-2.6-2.9-6.1-3.8-7.8-.8-1.7-1.2-3.8-.9-4.7 1.4-3.8 5.8-3.9 113.7-3.5 62.1.3 105.6.1 107.2-.4 3.3-1.2 4.3-3.7 2.3-5.7-.9-.9-5.3-3.2-9.8-5.2-6.2-2.6-8.2-4-8.2-5.4 0-4.4 1.9-4.5 61.8-4 50.6.3 57.1.6 59.4 2z"/>
    <path d="M456 821c-20.6.5-24.1 1.1-25.3 4.4-.4.9.4 2.8 1.6 4.3 4.8 5.9 5.7 8.1 4.7 10.7-.6 1.7-2.1 2.8-4.7 3.4-4.7 1.2-197.7.8-253.3-.5-21.8-.6-40.6-.6-42-.1-2.9 1-7 6.5-7 9.4 0 2.7 4.5 11.3 7.8 14.7 5.8 6.3-5.9 5.9 173.7 5.8 90.3 0 165.1-.4 166.1-.7 5.9-2.1 7.2-7.8 2.7-11.3-1.4-1.2-5-2.8-8-3.7-5.6-1.6-7.9-4.1-6.8-7.4.9-2.9 6.1-3.9 15.6-2.9 4.6.4 30.5.6 57.4.4 118.2-1 170.1-1.1 200-.5 17.6.4 39.7.3 49-.1 18.2-.7 23.8 0 25.6 3.3 1.6 2.9-1.1 6.1-6.2 7.5-4.7 1.2-10.6 4.8-12.2 7.4-.5.9-.7 2.7-.4 4.2.6 2.1 1.4 2.6 5.4 3.1 2.7.4 77.7.7 166.9.9l162.1.2 6.8-3.5c7.7-4 12.3-8.9 13.2-14.3.8-5.3-.3-8.3-4.1-11.2l-3.5-2.6-22.3 1.1c-12.4.6-74.4 1.4-139.3 1.7-64.3.3-120.8.5-125.5.6-11.1.2-12-.2-12-5.2 0-3.2.8-4.9 4-8.6 2.2-2.5 4-5.4 4-6.4 0-4.2-.5-4.2-191.7-4.4-100-.2-191 0-202.3.3z"/>
    <path d="M504.5 868.2c-2.7 1.5-3.5 2.8-3.5 5.8 0 2.1.7 2.9 3.6 3.9 2 .7 6 3.5 8.9 6.1 2.9 2.6 6.2 5.1 7.4 5.5 2.3.7 2.8 2 .9 2.7-.7.3-25.8.2-55.8-.1-30-.3-110.6-.4-179.1-.1-120.8.5-124.8.6-126.8 2.4-3.3 3-2.7 7.1 2.1 14.3 4.6 7 9.2 10.6 15.6 12.3 4.7 1.2 914.9 1.7 921.8.4 8.6-1.5 18-10.1 20.6-18.5.9-3.2.8-4.2-.6-6.3-.9-1.4-2.5-3-3.6-3.6-2.1-1.1-298.7-1.6-336.5-.5-15.1.5-21.4.3-22.5-.5-1.2-.9-1.2-1.3-.2-1.7.8-.3 2.8-1.7 4.6-3.2 1.7-1.4 4-3.2 5.1-3.9 11.5-7.3 12.2-8.2 10.1-12.3-1.9-3.8-6.2-4.2-36.1-3-45.4 1.9-102.8 2.3-139.1 1.2-58.3-1.9-94.7-2.2-96.9-.9zm176.3 29.1c5.9 2.1 6.4 3.2 2.5 5-4.1 1.8-82.1 1.7-88-.1-4.2-1.3-5.5-3.3-3.1-4.9 2-1.2 19.9-1.8 52.8-1.8 26.9 0 31.1.2 35.8 1.8zM997 982.1c-10.2.3-185.7.7-390 .8-296.3.1-372 .4-374 1.4-1.8.9-2.6 2.2-2.8 4.7-.2 3.3.6 4.4 13 16.6 7.3 7.2 16.5 15.5 20.3 18.4 3.9 2.9 8.8 6.8 11 8.7 9.2 8 21.5 17.8 28.8 23.1 4.3 3.1 9.5 7 11.5 8.5 6.3 4.8 15.5 10.7 16.6 10.7.6 0 4.4 2.5 8.5 5.5s7.8 5.5 8.4 5.5c.5 0 2.1.8 3.5 1.9 1.5 1 4.4 2.4 6.5 3 2.1.7 5.1 2.4 6.7 3.7 1.6 1.4 5.9 3.8 9.5 5.5 3.7 1.6 9 4.6 11.9 6.4 2.8 1.9 7.6 4.2 10.6 5.1 3 .9 7.3 2.6 9.5 3.8 2.2 1.2 5.6 2.8 7.5 3.6 1.9.7 6.7 2.8 10.6 4.6 3.9 1.8 9.3 3.8 12 4.5 2.7.6 5.4 1.5 5.9 2 1.8 1.4 20.4 7.7 24.8 8.4 2.3.4 6.7 1.8 9.7 3 5.2 2.2 13.4 4.3 30.5 7.9 3.9.8 9 2.2 11.5 3 4.5 1.5 22.8 4.7 41 7.1 5.2.7 13.3 2.1 18 3.1 7.7 1.7 13.5 1.9 63 1.9 52.9 0 54.8-.1 63.5-2.2 5-1.2 11.7-2.5 15-2.8 8.7-.9 31.1-4.4 37.5-6 3-.7 8.2-2 11.5-2.8 3.3-.9 11-2.8 17-4.2 6.1-1.4 12.7-3.4 14.7-4.5 2-1 6.5-2.4 10-3 3.5-.6 11.3-3.1 17.3-5.5 6.1-2.4 13.3-4.9 16-5.6 2.8-.7 7.5-2.5 10.5-4s8.4-3.7 12-5c3.6-1.2 7.5-3.1 8.8-4 1.3-1 4.6-2.5 7.5-3.5 2.8-.9 7.4-3.2 10.2-4.9 2.8-1.8 8.2-4.7 12-6.4 3.8-1.7 8.4-4.3 10.2-5.7 1.8-1.4 4.8-3 6.6-3.7 4.5-1.7 17.6-9.5 21.5-12.9 1.8-1.5 3.8-2.8 4.5-2.8 2.3-.1 24.9-15.8 41.6-29 4.5-3.6 10-7.8 12.1-9.3 5.1-3.6 15.6-13 29.5-26.3 6.1-5.8 12.3-11.8 13.8-13.2 3.6-3.3 6-8.7 5.1-11.4-1.5-4.7-10.1-5.3-52.4-3.7z"/>
</svg>
